solid CATIA STL
  facet normal  0.000000e+000  0.000000e+000 -1.000000e+000
    outer loop
      vertex -7.865703e+000  5.255694e+000  7.050000e+000
      vertex -8.589081e+000  5.739040e+000  7.050000e+000
      vertex -6.689230e+000  6.689230e+000  7.050000e+000
    endloop
  endfacet
  facet normal  0.000000e+000  0.000000e+000 -1.000000e+000
    outer loop
      vertex  1.845554e+000  9.278229e+000  7.050000e+000
      vertex  1.129846e-014  9.460000e+000  7.050000e+000
      vertex  3.953120e+000  9.543675e+000  7.050000e+000
    endloop
  endfacet
  facet normal  0.000000e+000  0.000000e+000 -1.000000e+000
    outer loop
      vertex -3.953120e+000 -9.543675e+000  7.050000e+000
      vertex -5.739040e+000 -8.589081e+000  7.050000e+000
      vertex -3.620185e+000 -8.739901e+000  7.050000e+000
    endloop
  endfacet
  facet normal  0.000000e+000  -0.000000e+000 -1.000000e+000
    outer loop
      vertex -3.953120e+000 -9.543675e+000  7.050000e+000
      vertex -3.620185e+000 -8.739901e+000  7.050000e+000
      vertex -1.845554e+000 -9.278229e+000  7.050000e+000
    endloop
  endfacet
  facet normal  0.000000e+000  -0.000000e+000 -1.000000e+000
    outer loop
      vertex -3.953120e+000 -9.543675e+000  7.050000e+000
      vertex -1.845554e+000 -9.278229e+000  7.050000e+000
      vertex -1.737774e-015 -9.460000e+000  7.050000e+000
    endloop
  endfacet
  facet normal  0.000000e+000  0.000000e+000 -1.000000e+000
    outer loop
      vertex -3.953120e+000 -9.543675e+000  7.050000e+000
      vertex -1.737774e-015 -9.460000e+000  7.050000e+000
      vertex -1.897590e-015 -1.033000e+001  7.050000e+000
    endloop
  endfacet
  facet normal  0.000000e+000  0.000000e+000 -1.000000e+000
    outer loop
      vertex -3.953120e+000 -9.543675e+000  7.050000e+000
      vertex -1.897590e-015 -1.033000e+001  7.050000e+000
      vertex -2.015283e+000 -1.013151e+001  7.050000e+000
    endloop
  endfacet
  facet normal  0.000000e+000  0.000000e+000 -1.000000e+000
    outer loop
      vertex  3.953120e+000  9.543675e+000  7.050000e+000
      vertex  1.129846e-014  9.460000e+000  7.050000e+000
      vertex  2.015283e+000  1.013151e+001  7.050000e+000
    endloop
  endfacet
  facet normal  -0.000000e+000  0.000000e+000 -1.000000e+000
    outer loop
      vertex  2.015283e+000  1.013151e+001  7.050000e+000
      vertex  1.129846e-014  9.460000e+000  7.050000e+000
      vertex  2.151242e-014  1.033000e+001  7.050000e+000
    endloop
  endfacet
  facet normal  0.000000e+000  0.000000e+000 -1.000000e+000
    outer loop
      vertex  1.129846e-014  9.460000e+000  7.050000e+000
      vertex -3.953120e+000  9.543675e+000  7.050000e+000
      vertex  2.151242e-014  1.033000e+001  7.050000e+000
    endloop
  endfacet
  facet normal  0.000000e+000  0.000000e+000 -1.000000e+000
    outer loop
      vertex  2.151242e-014  1.033000e+001  7.050000e+000
      vertex -3.953120e+000  9.543675e+000  7.050000e+000
      vertex -2.015283e+000  1.013151e+001  7.050000e+000
    endloop
  endfacet
  facet normal  0.000000e+000  0.000000e+000 -1.000000e+000
    outer loop
      vertex  1.129846e-014  9.460000e+000  7.050000e+000
      vertex -1.845554e+000  9.278229e+000  7.050000e+000
      vertex -3.953120e+000  9.543675e+000  7.050000e+000
    endloop
  endfacet
  facet normal  0.000000e+000  0.000000e+000 -9.999999e-001
    outer loop
      vertex -3.953120e+000  9.543675e+000  7.050000e+000
      vertex -1.845554e+000  9.278229e+000  7.050000e+000
      vertex -3.620185e+000  8.739901e+000  7.050000e+000
    endloop
  endfacet
  facet normal  -0.000000e+000  0.000000e+000 -1.000000e+000
    outer loop
      vertex -3.953120e+000  9.543675e+000  7.050000e+000
      vertex -3.620185e+000  8.739901e+000  7.050000e+000
      vertex -5.739040e+000  8.589081e+000  7.050000e+000
    endloop
  endfacet
  facet normal  0.000000e+000  0.000000e+000 -1.000000e+000
    outer loop
      vertex -5.739040e+000  8.589081e+000  7.050000e+000
      vertex -3.620185e+000  8.739901e+000  7.050000e+000
      vertex -5.255694e+000  7.865703e+000  7.050000e+000
    endloop
  endfacet
  facet normal  -0.000000e+000  0.000000e+000 -1.000000e+000
    outer loop
      vertex -5.739040e+000  8.589081e+000  7.050000e+000
      vertex -5.255694e+000  7.865703e+000  7.050000e+000
      vertex -7.304413e+000  7.304413e+000  7.050000e+000
    endloop
  endfacet
  facet normal  0.000000e+000  0.000000e+000 -1.000000e+000
    outer loop
      vertex -7.304413e+000  7.304413e+000  7.050000e+000
      vertex -5.255694e+000  7.865703e+000  7.050000e+000
      vertex -6.689230e+000  6.689230e+000  7.050000e+000
    endloop
  endfacet
  facet normal  -0.000000e+000  0.000000e+000 -1.000000e+000
    outer loop
      vertex -7.304413e+000  7.304413e+000  7.050000e+000
      vertex -6.689230e+000  6.689230e+000  7.050000e+000
      vertex -8.589081e+000  5.739040e+000  7.050000e+000
    endloop
  endfacet
  facet normal  0.000000e+000  0.000000e+000 -1.000000e+000
    outer loop
      vertex -5.255694e+000 -7.865703e+000  7.050000e+000
      vertex -7.304413e+000 -7.304413e+000  7.050000e+000
      vertex -6.689230e+000 -6.689230e+000  7.050000e+000
    endloop
  endfacet
  facet normal  -0.000000e+000  0.000000e+000 -1.000000e+000
    outer loop
      vertex -6.689230e+000 -6.689230e+000  7.050000e+000
      vertex -7.304413e+000 -7.304413e+000  7.050000e+000
      vertex -8.589081e+000 -5.739040e+000  7.050000e+000
    endloop
  endfacet
  facet normal  0.000000e+000  0.000000e+000 -1.000000e+000
    outer loop
      vertex -6.689230e+000 -6.689230e+000  7.050000e+000
      vertex -8.589081e+000 -5.739040e+000  7.050000e+000
      vertex -7.865703e+000 -5.255694e+000  7.050000e+000
    endloop
  endfacet
  facet normal  -0.000000e+000  0.000000e+000 -1.000000e+000
    outer loop
      vertex -7.865703e+000 -5.255694e+000  7.050000e+000
      vertex -8.589081e+000 -5.739040e+000  7.050000e+000
      vertex -9.543675e+000 -3.953120e+000  7.050000e+000
    endloop
  endfacet
  facet normal  0.000000e+000  0.000000e+000 -1.000000e+000
    outer loop
      vertex -7.865703e+000 -5.255694e+000  7.050000e+000
      vertex -9.543675e+000 -3.953120e+000  7.050000e+000
      vertex -8.739901e+000 -3.620185e+000  7.050000e+000
    endloop
  endfacet
  facet normal  -0.000000e+000  0.000000e+000 -1.000000e+000
    outer loop
      vertex -8.739901e+000 -3.620185e+000  7.050000e+000
      vertex -9.543675e+000 -3.953120e+000  7.050000e+000
      vertex -1.013151e+001 -2.015283e+000  7.050000e+000
    endloop
  endfacet
  facet normal  0.000000e+000  0.000000e+000 -1.000000e+000
    outer loop
      vertex -8.739901e+000 -3.620185e+000  7.050000e+000
      vertex -1.013151e+001 -2.015283e+000  7.050000e+000
      vertex -9.278229e+000 -1.845554e+000  7.050000e+000
    endloop
  endfacet
  facet normal  -0.000000e+000  0.000000e+000 -9.999999e-001
    outer loop
      vertex -9.278229e+000 -1.845554e+000  7.050000e+000
      vertex -1.013151e+001 -2.015283e+000  7.050000e+000
      vertex -1.033000e+001  5.852502e-015  7.050000e+000
    endloop
  endfacet
  facet normal  0.000000e+000  0.000000e+000 -9.999999e-001
    outer loop
      vertex -9.278229e+000 -1.845554e+000  7.050000e+000
      vertex -1.033000e+001  5.852502e-015  7.050000e+000
      vertex -9.460000e+000  1.158516e-015  7.050000e+000
    endloop
  endfacet
  facet normal  0.000000e+000  0.000000e+000 -1.000000e+000
    outer loop
      vertex -9.460000e+000  1.158516e-015  7.050000e+000
      vertex -1.033000e+001  5.852502e-015  7.050000e+000
      vertex -1.013151e+001  2.015283e+000  7.050000e+000
    endloop
  endfacet
  facet normal  0.000000e+000  0.000000e+000 -1.000000e+000
    outer loop
      vertex -9.460000e+000  1.158516e-015  7.050000e+000
      vertex -1.013151e+001  2.015283e+000  7.050000e+000
      vertex -9.278229e+000  1.845554e+000  7.050000e+000
    endloop
  endfacet
  facet normal  0.000000e+000  0.000000e+000 -1.000000e+000
    outer loop
      vertex -9.278229e+000  1.845554e+000  7.050000e+000
      vertex -1.013151e+001  2.015283e+000  7.050000e+000
      vertex -9.543675e+000  3.953120e+000  7.050000e+000
    endloop
  endfacet
  facet normal  0.000000e+000  0.000000e+000 -9.999999e-001
    outer loop
      vertex -9.278229e+000  1.845554e+000  7.050000e+000
      vertex -9.543675e+000  3.953120e+000  7.050000e+000
      vertex -8.739901e+000  3.620185e+000  7.050000e+000
    endloop
  endfacet
  facet normal  0.000000e+000  0.000000e+000 -1.000000e+000
    outer loop
      vertex -8.739901e+000  3.620185e+000  7.050000e+000
      vertex -9.543675e+000  3.953120e+000  7.050000e+000
      vertex -8.589081e+000  5.739040e+000  7.050000e+000
    endloop
  endfacet
  facet normal  0.000000e+000  -0.000000e+000 -1.000000e+000
    outer loop
      vertex -8.739901e+000  3.620185e+000  7.050000e+000
      vertex -8.589081e+000  5.739040e+000  7.050000e+000
      vertex -7.865703e+000  5.255694e+000  7.050000e+000
    endloop
  endfacet
  facet normal  0.000000e+000  0.000000e+000 -1.000000e+000
    outer loop
      vertex -5.739040e+000 -8.589081e+000  7.050000e+000
      vertex -7.304413e+000 -7.304413e+000  7.050000e+000
      vertex -3.620185e+000 -8.739901e+000  7.050000e+000
    endloop
  endfacet
  facet normal  0.000000e+000  0.000000e+000 -1.000000e+000
    outer loop
      vertex -3.620185e+000 -8.739901e+000  7.050000e+000
      vertex -7.304413e+000 -7.304413e+000  7.050000e+000
      vertex -5.255694e+000 -7.865703e+000  7.050000e+000
    endloop
  endfacet
  facet normal  0.000000e+000  0.000000e+000 -9.999999e-001
    outer loop
      vertex  7.865703e+000  5.255694e+000  7.050000e+000
      vertex  6.689230e+000  6.689230e+000  7.050000e+000
      vertex  8.589081e+000  5.739040e+000  7.050000e+000
    endloop
  endfacet
  facet normal  0.000000e+000  0.000000e+000 -1.000000e+000
    outer loop
      vertex  8.589081e+000  5.739040e+000  7.050000e+000
      vertex  6.689230e+000  6.689230e+000  7.050000e+000
      vertex  5.255694e+000  7.865703e+000  7.050000e+000
    endloop
  endfacet
  facet normal  0.000000e+000  0.000000e+000 -1.000000e+000
    outer loop
      vertex  8.589081e+000  5.739040e+000  7.050000e+000
      vertex  5.255694e+000  7.865703e+000  7.050000e+000
      vertex  7.304413e+000  7.304413e+000  7.050000e+000
    endloop
  endfacet
  facet normal  0.000000e+000  0.000000e+000 -1.000000e+000
    outer loop
      vertex  7.304413e+000  7.304413e+000  7.050000e+000
      vertex  5.255694e+000  7.865703e+000  7.050000e+000
      vertex  3.620185e+000  8.739901e+000  7.050000e+000
    endloop
  endfacet
  facet normal  0.000000e+000  0.000000e+000 -1.000000e+000
    outer loop
      vertex  7.304413e+000  7.304413e+000  7.050000e+000
      vertex  3.620185e+000  8.739901e+000  7.050000e+000
      vertex  5.739040e+000  8.589081e+000  7.050000e+000
    endloop
  endfacet
  facet normal  0.000000e+000  0.000000e+000 -1.000000e+000
    outer loop
      vertex  5.739040e+000  8.589081e+000  7.050000e+000
      vertex  3.620185e+000  8.739901e+000  7.050000e+000
      vertex  1.845554e+000  9.278229e+000  7.050000e+000
    endloop
  endfacet
  facet normal  0.000000e+000  0.000000e+000 -9.999999e-001
    outer loop
      vertex  5.739040e+000  8.589081e+000  7.050000e+000
      vertex  1.845554e+000  9.278229e+000  7.050000e+000
      vertex  3.953120e+000  9.543675e+000  7.050000e+000
    endloop
  endfacet
  facet normal  0.000000e+000  -0.000000e+000 -1.000000e+000
    outer loop
      vertex  5.255694e+000 -7.865703e+000  7.050000e+000
      vertex  6.689230e+000 -6.689230e+000  7.050000e+000
      vertex  7.304413e+000 -7.304413e+000  7.050000e+000
    endloop
  endfacet
  facet normal  0.000000e+000  0.000000e+000 -1.000000e+000
    outer loop
      vertex  7.304413e+000 -7.304413e+000  7.050000e+000
      vertex  6.689230e+000 -6.689230e+000  7.050000e+000
      vertex  7.865703e+000 -5.255694e+000  7.050000e+000
    endloop
  endfacet
  facet normal  0.000000e+000  -0.000000e+000 -1.000000e+000
    outer loop
      vertex  7.304413e+000 -7.304413e+000  7.050000e+000
      vertex  7.865703e+000 -5.255694e+000  7.050000e+000
      vertex  8.589081e+000 -5.739040e+000  7.050000e+000
    endloop
  endfacet
  facet normal  0.000000e+000  0.000000e+000 -1.000000e+000
    outer loop
      vertex  8.589081e+000 -5.739040e+000  7.050000e+000
      vertex  7.865703e+000 -5.255694e+000  7.050000e+000
      vertex  8.739901e+000 -3.620185e+000  7.050000e+000
    endloop
  endfacet
  facet normal  0.000000e+000  -0.000000e+000 -1.000000e+000
    outer loop
      vertex  8.589081e+000 -5.739040e+000  7.050000e+000
      vertex  8.739901e+000 -3.620185e+000  7.050000e+000
      vertex  9.543675e+000 -3.953120e+000  7.050000e+000
    endloop
  endfacet
  facet normal  0.000000e+000  0.000000e+000 -9.999999e-001
    outer loop
      vertex  9.543675e+000 -3.953120e+000  7.050000e+000
      vertex  8.739901e+000 -3.620185e+000  7.050000e+000
      vertex  9.278229e+000 -1.845554e+000  7.050000e+000
    endloop
  endfacet
  facet normal  0.000000e+000  0.000000e+000 -1.000000e+000
    outer loop
      vertex  9.543675e+000 -3.953120e+000  7.050000e+000
      vertex  9.278229e+000 -1.845554e+000  7.050000e+000
      vertex  1.013151e+001 -2.015283e+000  7.050000e+000
    endloop
  endfacet
  facet normal  0.000000e+000  0.000000e+000 -1.000000e+000
    outer loop
      vertex  1.013151e+001 -2.015283e+000  7.050000e+000
      vertex  9.278229e+000 -1.845554e+000  7.050000e+000
      vertex  9.460000e+000 -2.317032e-015  7.050000e+000
    endloop
  endfacet
  facet normal  0.000000e+000  0.000000e+000 -1.000000e+000
    outer loop
      vertex  1.013151e+001 -2.015283e+000  7.050000e+000
      vertex  9.460000e+000 -2.317032e-015  7.050000e+000
      vertex  1.033000e+001 -1.170500e-014  7.050000e+000
    endloop
  endfacet
  facet normal  0.000000e+000  0.000000e+000 -9.999999e-001
    outer loop
      vertex  1.033000e+001 -1.170500e-014  7.050000e+000
      vertex  9.460000e+000 -2.317032e-015  7.050000e+000
      vertex  9.278229e+000  1.845554e+000  7.050000e+000
    endloop
  endfacet
  facet normal  0.000000e+000  0.000000e+000 -9.999999e-001
    outer loop
      vertex  1.033000e+001 -1.170500e-014  7.050000e+000
      vertex  9.278229e+000  1.845554e+000  7.050000e+000
      vertex  1.013151e+001  2.015283e+000  7.050000e+000
    endloop
  endfacet
  facet normal  -0.000000e+000  0.000000e+000 -1.000000e+000
    outer loop
      vertex  1.013151e+001  2.015283e+000  7.050000e+000
      vertex  9.278229e+000  1.845554e+000  7.050000e+000
      vertex  8.739901e+000  3.620185e+000  7.050000e+000
    endloop
  endfacet
  facet normal  0.000000e+000  0.000000e+000 -1.000000e+000
    outer loop
      vertex  1.013151e+001  2.015283e+000  7.050000e+000
      vertex  8.739901e+000  3.620185e+000  7.050000e+000
      vertex  9.543675e+000  3.953120e+000  7.050000e+000
    endloop
  endfacet
  facet normal  -0.000000e+000  0.000000e+000 -1.000000e+000
    outer loop
      vertex  9.543675e+000  3.953120e+000  7.050000e+000
      vertex  8.739901e+000  3.620185e+000  7.050000e+000
      vertex  7.865703e+000  5.255694e+000  7.050000e+000
    endloop
  endfacet
  facet normal  0.000000e+000  0.000000e+000 -1.000000e+000
    outer loop
      vertex  9.543675e+000  3.953120e+000  7.050000e+000
      vertex  7.865703e+000  5.255694e+000  7.050000e+000
      vertex  8.589081e+000  5.739040e+000  7.050000e+000
    endloop
  endfacet
  facet normal  0.000000e+000  -0.000000e+000 -1.000000e+000
    outer loop
      vertex -1.737774e-015 -9.460000e+000  7.050000e+000
      vertex  1.845554e+000 -9.278229e+000  7.050000e+000
      vertex  3.953120e+000 -9.543675e+000  7.050000e+000
    endloop
  endfacet
  facet normal  0.000000e+000  0.000000e+000 -9.999999e-001
    outer loop
      vertex  3.953120e+000 -9.543675e+000  7.050000e+000
      vertex  1.845554e+000 -9.278229e+000  7.050000e+000
      vertex  3.620185e+000 -8.739901e+000  7.050000e+000
    endloop
  endfacet
  facet normal  0.000000e+000  0.000000e+000 -1.000000e+000
    outer loop
      vertex  3.953120e+000 -9.543675e+000  7.050000e+000
      vertex  3.620185e+000 -8.739901e+000  7.050000e+000
      vertex  5.739040e+000 -8.589081e+000  7.050000e+000
    endloop
  endfacet
  facet normal  -0.000000e+000  0.000000e+000 -1.000000e+000
    outer loop
      vertex  5.739040e+000 -8.589081e+000  7.050000e+000
      vertex  3.620185e+000 -8.739901e+000  7.050000e+000
      vertex  5.255694e+000 -7.865703e+000  7.050000e+000
    endloop
  endfacet
  facet normal  0.000000e+000  0.000000e+000 -1.000000e+000
    outer loop
      vertex  5.739040e+000 -8.589081e+000  7.050000e+000
      vertex  5.255694e+000 -7.865703e+000  7.050000e+000
      vertex  7.304413e+000 -7.304413e+000  7.050000e+000
    endloop
  endfacet
  facet normal  0.000000e+000  -0.000000e+000 -1.000000e+000
    outer loop
      vertex -1.897590e-015 -1.033000e+001  7.050000e+000
      vertex -1.737774e-015 -9.460000e+000  7.050000e+000
      vertex  2.015283e+000 -1.013151e+001  7.050000e+000
    endloop
  endfacet
  facet normal  0.000000e+000  0.000000e+000 -1.000000e+000
    outer loop
      vertex  2.015283e+000 -1.013151e+001  7.050000e+000
      vertex -1.737774e-015 -9.460000e+000  7.050000e+000
      vertex  3.953120e+000 -9.543675e+000  7.050000e+000
    endloop
  endfacet
  facet normal  -0.000000e+000  0.000000e+000  1.000000e+000
    outer loop
      vertex -6.689230e+000  6.689230e+000  7.500000e+000
      vertex -8.589081e+000  5.739040e+000  7.500000e+000
      vertex -7.865703e+000  5.255694e+000  7.500000e+000
    endloop
  endfacet
  facet normal  -0.000000e+000  0.000000e+000  1.000000e+000
    outer loop
      vertex  3.953120e+000  9.543675e+000  7.500000e+000
      vertex  1.129846e-014  9.460000e+000  7.500000e+000
      vertex  1.845554e+000  9.278229e+000  7.500000e+000
    endloop
  endfacet
  facet normal  -0.000000e+000  -0.000000e+000  1.000000e+000
    outer loop
      vertex -3.953120e+000 -9.543675e+000  7.500000e+000
      vertex -2.015283e+000 -1.013151e+001  7.500000e+000
      vertex -1.897590e-015 -1.033000e+001  7.500000e+000
    endloop
  endfacet
  facet normal  0.000000e+000  -0.000000e+000  1.000000e+000
    outer loop
      vertex -3.953120e+000 -9.543675e+000  7.500000e+000
      vertex -1.897590e-015 -1.033000e+001  7.500000e+000
      vertex -1.737774e-015 -9.460000e+000  7.500000e+000
    endloop
  endfacet
  facet normal  0.000000e+000  0.000000e+000  1.000000e+000
    outer loop
      vertex -3.953120e+000 -9.543675e+000  7.500000e+000
      vertex -1.737774e-015 -9.460000e+000  7.500000e+000
      vertex -1.845554e+000 -9.278229e+000  7.500000e+000
    endloop
  endfacet
  facet normal  0.000000e+000  0.000000e+000  1.000000e+000
    outer loop
      vertex -3.953120e+000 -9.543675e+000  7.500000e+000
      vertex -1.845554e+000 -9.278229e+000  7.500000e+000
      vertex -3.620185e+000 -8.739901e+000  7.500000e+000
    endloop
  endfacet
  facet normal  0.000000e+000  0.000000e+000  1.000000e+000
    outer loop
      vertex -3.953120e+000 -9.543675e+000  7.500000e+000
      vertex -3.620185e+000 -8.739901e+000  7.500000e+000
      vertex -5.739040e+000 -8.589081e+000  7.500000e+000
    endloop
  endfacet
  facet normal  0.000000e+000  0.000000e+000  1.000000e+000
    outer loop
      vertex  3.953120e+000  9.543675e+000  7.500000e+000
      vertex  2.015283e+000  1.013151e+001  7.500000e+000
      vertex  1.129846e-014  9.460000e+000  7.500000e+000
    endloop
  endfacet
  facet normal  0.000000e+000  0.000000e+000  1.000000e+000
    outer loop
      vertex  1.129846e-014  9.460000e+000  7.500000e+000
      vertex  2.015283e+000  1.013151e+001  7.500000e+000
      vertex  2.151242e-014  1.033000e+001  7.500000e+000
    endloop
  endfacet
  facet normal  0.000000e+000  0.000000e+000  1.000000e+000
    outer loop
      vertex  1.129846e-014  9.460000e+000  7.500000e+000
      vertex  2.151242e-014  1.033000e+001  7.500000e+000
      vertex -3.953120e+000  9.543675e+000  7.500000e+000
    endloop
  endfacet
  facet normal  0.000000e+000  0.000000e+000  1.000000e+000
    outer loop
      vertex -3.953120e+000  9.543675e+000  7.500000e+000
      vertex  2.151242e-014  1.033000e+001  7.500000e+000
      vertex -2.015283e+000  1.013151e+001  7.500000e+000
    endloop
  endfacet
  facet normal  0.000000e+000  0.000000e+000  1.000000e+000
    outer loop
      vertex -8.589081e+000  5.739040e+000  7.500000e+000
      vertex -6.689230e+000  6.689230e+000  7.500000e+000
      vertex -7.304413e+000  7.304413e+000  7.500000e+000
    endloop
  endfacet
  facet normal  -0.000000e+000  0.000000e+000  1.000000e+000
    outer loop
      vertex -7.304413e+000  7.304413e+000  7.500000e+000
      vertex -6.689230e+000  6.689230e+000  7.500000e+000
      vertex -5.255694e+000  7.865703e+000  7.500000e+000
    endloop
  endfacet
  facet normal  0.000000e+000  0.000000e+000  1.000000e+000
    outer loop
      vertex -7.304413e+000  7.304413e+000  7.500000e+000
      vertex -5.255694e+000  7.865703e+000  7.500000e+000
      vertex -5.739040e+000  8.589081e+000  7.500000e+000
    endloop
  endfacet
  facet normal  -0.000000e+000  0.000000e+000  1.000000e+000
    outer loop
      vertex -5.739040e+000  8.589081e+000  7.500000e+000
      vertex -5.255694e+000  7.865703e+000  7.500000e+000
      vertex -3.620185e+000  8.739901e+000  7.500000e+000
    endloop
  endfacet
  facet normal  0.000000e+000  0.000000e+000  1.000000e+000
    outer loop
      vertex -5.739040e+000  8.589081e+000  7.500000e+000
      vertex -3.620185e+000  8.739901e+000  7.500000e+000
      vertex -3.953120e+000  9.543675e+000  7.500000e+000
    endloop
  endfacet
  facet normal  0.000000e+000  0.000000e+000  9.999999e-001
    outer loop
      vertex -3.953120e+000  9.543675e+000  7.500000e+000
      vertex -3.620185e+000  8.739901e+000  7.500000e+000
      vertex -1.845554e+000  9.278229e+000  7.500000e+000
    endloop
  endfacet
  facet normal  0.000000e+000  -0.000000e+000  1.000000e+000
    outer loop
      vertex -3.953120e+000  9.543675e+000  7.500000e+000
      vertex -1.845554e+000  9.278229e+000  7.500000e+000
      vertex  1.129846e-014  9.460000e+000  7.500000e+000
    endloop
  endfacet
  facet normal  0.000000e+000  0.000000e+000  1.000000e+000
    outer loop
      vertex -7.865703e+000  5.255694e+000  7.500000e+000
      vertex -8.589081e+000  5.739040e+000  7.500000e+000
      vertex -8.739901e+000  3.620185e+000  7.500000e+000
    endloop
  endfacet
  facet normal  0.000000e+000  -0.000000e+000  1.000000e+000
    outer loop
      vertex -8.739901e+000  3.620185e+000  7.500000e+000
      vertex -8.589081e+000  5.739040e+000  7.500000e+000
      vertex -9.543675e+000  3.953120e+000  7.500000e+000
    endloop
  endfacet
  facet normal  0.000000e+000  0.000000e+000  9.999999e-001
    outer loop
      vertex -8.739901e+000  3.620185e+000  7.500000e+000
      vertex -9.543675e+000  3.953120e+000  7.500000e+000
      vertex -9.278229e+000  1.845554e+000  7.500000e+000
    endloop
  endfacet
  facet normal  0.000000e+000  0.000000e+000  1.000000e+000
    outer loop
      vertex -9.278229e+000  1.845554e+000  7.500000e+000
      vertex -9.543675e+000  3.953120e+000  7.500000e+000
      vertex -1.013151e+001  2.015283e+000  7.500000e+000
    endloop
  endfacet
  facet normal  0.000000e+000  0.000000e+000  1.000000e+000
    outer loop
      vertex -9.278229e+000  1.845554e+000  7.500000e+000
      vertex -1.013151e+001  2.015283e+000  7.500000e+000
      vertex -9.460000e+000  1.158516e-015  7.500000e+000
    endloop
  endfacet
  facet normal  0.000000e+000  0.000000e+000  1.000000e+000
    outer loop
      vertex -9.460000e+000  1.158516e-015  7.500000e+000
      vertex -1.013151e+001  2.015283e+000  7.500000e+000
      vertex -1.033000e+001  5.852502e-015  7.500000e+000
    endloop
  endfacet
  facet normal  0.000000e+000  0.000000e+000  9.999999e-001
    outer loop
      vertex -9.460000e+000  1.158516e-015  7.500000e+000
      vertex -1.033000e+001  5.852502e-015  7.500000e+000
      vertex -9.278229e+000 -1.845554e+000  7.500000e+000
    endloop
  endfacet
  facet normal  0.000000e+000  0.000000e+000  9.999999e-001
    outer loop
      vertex -9.278229e+000 -1.845554e+000  7.500000e+000
      vertex -1.033000e+001  5.852502e-015  7.500000e+000
      vertex -1.013151e+001 -2.015283e+000  7.500000e+000
    endloop
  endfacet
  facet normal  -0.000000e+000  0.000000e+000  1.000000e+000
    outer loop
      vertex -9.278229e+000 -1.845554e+000  7.500000e+000
      vertex -1.013151e+001 -2.015283e+000  7.500000e+000
      vertex -8.739901e+000 -3.620185e+000  7.500000e+000
    endloop
  endfacet
  facet normal  0.000000e+000  0.000000e+000  1.000000e+000
    outer loop
      vertex -8.739901e+000 -3.620185e+000  7.500000e+000
      vertex -1.013151e+001 -2.015283e+000  7.500000e+000
      vertex -9.543675e+000 -3.953120e+000  7.500000e+000
    endloop
  endfacet
  facet normal  -0.000000e+000  0.000000e+000  1.000000e+000
    outer loop
      vertex -8.739901e+000 -3.620185e+000  7.500000e+000
      vertex -9.543675e+000 -3.953120e+000  7.500000e+000
      vertex -7.865703e+000 -5.255694e+000  7.500000e+000
    endloop
  endfacet
  facet normal  0.000000e+000  0.000000e+000  1.000000e+000
    outer loop
      vertex -7.865703e+000 -5.255694e+000  7.500000e+000
      vertex -9.543675e+000 -3.953120e+000  7.500000e+000
      vertex -8.589081e+000 -5.739040e+000  7.500000e+000
    endloop
  endfacet
  facet normal  -0.000000e+000  0.000000e+000  1.000000e+000
    outer loop
      vertex -7.865703e+000 -5.255694e+000  7.500000e+000
      vertex -8.589081e+000 -5.739040e+000  7.500000e+000
      vertex -6.689230e+000 -6.689230e+000  7.500000e+000
    endloop
  endfacet
  facet normal  0.000000e+000  0.000000e+000  1.000000e+000
    outer loop
      vertex -6.689230e+000 -6.689230e+000  7.500000e+000
      vertex -8.589081e+000 -5.739040e+000  7.500000e+000
      vertex -7.304413e+000 -7.304413e+000  7.500000e+000
    endloop
  endfacet
  facet normal  -0.000000e+000  0.000000e+000  1.000000e+000
    outer loop
      vertex -6.689230e+000 -6.689230e+000  7.500000e+000
      vertex -7.304413e+000 -7.304413e+000  7.500000e+000
      vertex -5.255694e+000 -7.865703e+000  7.500000e+000
    endloop
  endfacet
  facet normal  0.000000e+000  0.000000e+000  1.000000e+000
    outer loop
      vertex -5.739040e+000 -8.589081e+000  7.500000e+000
      vertex -3.620185e+000 -8.739901e+000  7.500000e+000
      vertex -7.304413e+000 -7.304413e+000  7.500000e+000
    endloop
  endfacet
  facet normal  0.000000e+000  0.000000e+000  1.000000e+000
    outer loop
      vertex -7.304413e+000 -7.304413e+000  7.500000e+000
      vertex -3.620185e+000 -8.739901e+000  7.500000e+000
      vertex -5.255694e+000 -7.865703e+000  7.500000e+000
    endloop
  endfacet
  facet normal  -0.000000e+000  0.000000e+000  9.999999e-001
    outer loop
      vertex  3.953120e+000  9.543675e+000  7.500000e+000
      vertex  1.845554e+000  9.278229e+000  7.500000e+000
      vertex  5.739040e+000  8.589081e+000  7.500000e+000
    endloop
  endfacet
  facet normal  0.000000e+000  0.000000e+000  1.000000e+000
    outer loop
      vertex  5.739040e+000  8.589081e+000  7.500000e+000
      vertex  1.845554e+000  9.278229e+000  7.500000e+000
      vertex  3.620185e+000  8.739901e+000  7.500000e+000
    endloop
  endfacet
  facet normal  0.000000e+000  0.000000e+000  1.000000e+000
    outer loop
      vertex  5.739040e+000  8.589081e+000  7.500000e+000
      vertex  3.620185e+000  8.739901e+000  7.500000e+000
      vertex  7.304413e+000  7.304413e+000  7.500000e+000
    endloop
  endfacet
  facet normal  0.000000e+000  0.000000e+000  1.000000e+000
    outer loop
      vertex  7.304413e+000  7.304413e+000  7.500000e+000
      vertex  3.620185e+000  8.739901e+000  7.500000e+000
      vertex  5.255694e+000  7.865703e+000  7.500000e+000
    endloop
  endfacet
  facet normal  0.000000e+000  0.000000e+000  1.000000e+000
    outer loop
      vertex  7.304413e+000  7.304413e+000  7.500000e+000
      vertex  5.255694e+000  7.865703e+000  7.500000e+000
      vertex  8.589081e+000  5.739040e+000  7.500000e+000
    endloop
  endfacet
  facet normal  0.000000e+000  0.000000e+000  1.000000e+000
    outer loop
      vertex  8.589081e+000  5.739040e+000  7.500000e+000
      vertex  5.255694e+000  7.865703e+000  7.500000e+000
      vertex  6.689230e+000  6.689230e+000  7.500000e+000
    endloop
  endfacet
  facet normal  0.000000e+000  0.000000e+000  9.999999e-001
    outer loop
      vertex  8.589081e+000  5.739040e+000  7.500000e+000
      vertex  6.689230e+000  6.689230e+000  7.500000e+000
      vertex  7.865703e+000  5.255694e+000  7.500000e+000
    endloop
  endfacet
  facet normal  -0.000000e+000  0.000000e+000  1.000000e+000
    outer loop
      vertex  8.589081e+000  5.739040e+000  7.500000e+000
      vertex  7.865703e+000  5.255694e+000  7.500000e+000
      vertex  9.543675e+000  3.953120e+000  7.500000e+000
    endloop
  endfacet
  facet normal  0.000000e+000  0.000000e+000  1.000000e+000
    outer loop
      vertex  9.543675e+000  3.953120e+000  7.500000e+000
      vertex  7.865703e+000  5.255694e+000  7.500000e+000
      vertex  8.739901e+000  3.620185e+000  7.500000e+000
    endloop
  endfacet
  facet normal  -0.000000e+000  0.000000e+000  1.000000e+000
    outer loop
      vertex  9.543675e+000  3.953120e+000  7.500000e+000
      vertex  8.739901e+000  3.620185e+000  7.500000e+000
      vertex  1.013151e+001  2.015283e+000  7.500000e+000
    endloop
  endfacet
  facet normal  0.000000e+000  0.000000e+000  1.000000e+000
    outer loop
      vertex  1.013151e+001  2.015283e+000  7.500000e+000
      vertex  8.739901e+000  3.620185e+000  7.500000e+000
      vertex  9.278229e+000  1.845554e+000  7.500000e+000
    endloop
  endfacet
  facet normal  -0.000000e+000  0.000000e+000  9.999999e-001
    outer loop
      vertex  1.013151e+001  2.015283e+000  7.500000e+000
      vertex  9.278229e+000  1.845554e+000  7.500000e+000
      vertex  1.033000e+001 -1.170500e-014  7.500000e+000
    endloop
  endfacet
  facet normal  0.000000e+000  0.000000e+000  9.999999e-001
    outer loop
      vertex  1.033000e+001 -1.170500e-014  7.500000e+000
      vertex  9.278229e+000  1.845554e+000  7.500000e+000
      vertex  9.460000e+000 -2.317032e-015  7.500000e+000
    endloop
  endfacet
  facet normal  0.000000e+000  0.000000e+000  1.000000e+000
    outer loop
      vertex  1.033000e+001 -1.170500e-014  7.500000e+000
      vertex  9.460000e+000 -2.317032e-015  7.500000e+000
      vertex  1.013151e+001 -2.015283e+000  7.500000e+000
    endloop
  endfacet
  facet normal  0.000000e+000  0.000000e+000  1.000000e+000
    outer loop
      vertex  1.013151e+001 -2.015283e+000  7.500000e+000
      vertex  9.460000e+000 -2.317032e-015  7.500000e+000
      vertex  9.278229e+000 -1.845554e+000  7.500000e+000
    endloop
  endfacet
  facet normal  0.000000e+000  0.000000e+000  1.000000e+000
    outer loop
      vertex  1.013151e+001 -2.015283e+000  7.500000e+000
      vertex  9.278229e+000 -1.845554e+000  7.500000e+000
      vertex  9.543675e+000 -3.953120e+000  7.500000e+000
    endloop
  endfacet
  facet normal  0.000000e+000  0.000000e+000  9.999999e-001
    outer loop
      vertex  9.543675e+000 -3.953120e+000  7.500000e+000
      vertex  9.278229e+000 -1.845554e+000  7.500000e+000
      vertex  8.739901e+000 -3.620185e+000  7.500000e+000
    endloop
  endfacet
  facet normal  0.000000e+000  0.000000e+000  1.000000e+000
    outer loop
      vertex  9.543675e+000 -3.953120e+000  7.500000e+000
      vertex  8.739901e+000 -3.620185e+000  7.500000e+000
      vertex  8.589081e+000 -5.739040e+000  7.500000e+000
    endloop
  endfacet
  facet normal  0.000000e+000  -0.000000e+000  1.000000e+000
    outer loop
      vertex  8.589081e+000 -5.739040e+000  7.500000e+000
      vertex  8.739901e+000 -3.620185e+000  7.500000e+000
      vertex  7.865703e+000 -5.255694e+000  7.500000e+000
    endloop
  endfacet
  facet normal  0.000000e+000  0.000000e+000  1.000000e+000
    outer loop
      vertex  8.589081e+000 -5.739040e+000  7.500000e+000
      vertex  7.865703e+000 -5.255694e+000  7.500000e+000
      vertex  7.304413e+000 -7.304413e+000  7.500000e+000
    endloop
  endfacet
  facet normal  0.000000e+000  -0.000000e+000  1.000000e+000
    outer loop
      vertex  7.304413e+000 -7.304413e+000  7.500000e+000
      vertex  7.865703e+000 -5.255694e+000  7.500000e+000
      vertex  6.689230e+000 -6.689230e+000  7.500000e+000
    endloop
  endfacet
  facet normal  0.000000e+000  0.000000e+000  1.000000e+000
    outer loop
      vertex  7.304413e+000 -7.304413e+000  7.500000e+000
      vertex  6.689230e+000 -6.689230e+000  7.500000e+000
      vertex  5.255694e+000 -7.865703e+000  7.500000e+000
    endloop
  endfacet
  facet normal  -0.000000e+000  0.000000e+000  1.000000e+000
    outer loop
      vertex  7.304413e+000 -7.304413e+000  7.500000e+000
      vertex  5.255694e+000 -7.865703e+000  7.500000e+000
      vertex  5.739040e+000 -8.589081e+000  7.500000e+000
    endloop
  endfacet
  facet normal  0.000000e+000  0.000000e+000  1.000000e+000
    outer loop
      vertex  5.739040e+000 -8.589081e+000  7.500000e+000
      vertex  5.255694e+000 -7.865703e+000  7.500000e+000
      vertex  3.620185e+000 -8.739901e+000  7.500000e+000
    endloop
  endfacet
  facet normal  -0.000000e+000  0.000000e+000  1.000000e+000
    outer loop
      vertex  5.739040e+000 -8.589081e+000  7.500000e+000
      vertex  3.620185e+000 -8.739901e+000  7.500000e+000
      vertex  3.953120e+000 -9.543675e+000  7.500000e+000
    endloop
  endfacet
  facet normal  0.000000e+000  0.000000e+000  9.999999e-001
    outer loop
      vertex  3.953120e+000 -9.543675e+000  7.500000e+000
      vertex  3.620185e+000 -8.739901e+000  7.500000e+000
      vertex  1.845554e+000 -9.278229e+000  7.500000e+000
    endloop
  endfacet
  facet normal  0.000000e+000  0.000000e+000  1.000000e+000
    outer loop
      vertex  3.953120e+000 -9.543675e+000  7.500000e+000
      vertex  1.845554e+000 -9.278229e+000  7.500000e+000
      vertex -1.737774e-015 -9.460000e+000  7.500000e+000
    endloop
  endfacet
  facet normal  0.000000e+000  0.000000e+000  1.000000e+000
    outer loop
      vertex -1.897590e-015 -1.033000e+001  7.500000e+000
      vertex  2.015283e+000 -1.013151e+001  7.500000e+000
      vertex -1.737774e-015 -9.460000e+000  7.500000e+000
    endloop
  endfacet
  facet normal  0.000000e+000  0.000000e+000  1.000000e+000
    outer loop
      vertex -1.737774e-015 -9.460000e+000  7.500000e+000
      vertex  2.015283e+000 -1.013151e+001  7.500000e+000
      vertex  3.953120e+000 -9.543675e+000  7.500000e+000
    endloop
  endfacet
  facet normal -9.801715e-002  9.951847e-001  0.000000e+000
    outer loop
      vertex -1.737774e-015 -9.460000e+000  7.050000e+000
      vertex  1.845554e+000 -9.278229e+000  7.500000e+000
      vertex  1.845554e+000 -9.278229e+000  7.050000e+000
    endloop
  endfacet
  facet normal -2.902845e-001  9.569403e-001  0.000000e+000
    outer loop
      vertex  1.845554e+000 -9.278229e+000  7.050000e+000
      vertex  1.845554e+000 -9.278229e+000  7.500000e+000
      vertex  3.620185e+000 -8.739901e+000  7.500000e+000
    endloop
  endfacet
  facet normal -2.902845e-001  9.569403e-001  0.000000e+000
    outer loop
      vertex  1.845554e+000 -9.278229e+000  7.050000e+000
      vertex  3.620185e+000 -8.739901e+000  7.500000e+000
      vertex  3.620185e+000 -8.739901e+000  7.050000e+000
    endloop
  endfacet
  facet normal -4.713968e-001  8.819212e-001  0.000000e+000
    outer loop
      vertex  3.620185e+000 -8.739901e+000  7.050000e+000
      vertex  3.620185e+000 -8.739901e+000  7.500000e+000
      vertex  5.255694e+000 -7.865703e+000  7.500000e+000
    endloop
  endfacet
  facet normal -4.713968e-001  8.819212e-001  0.000000e+000
    outer loop
      vertex  3.620185e+000 -8.739901e+000  7.050000e+000
      vertex  5.255694e+000 -7.865703e+000  7.500000e+000
      vertex  5.255694e+000 -7.865703e+000  7.050000e+000
    endloop
  endfacet
  facet normal -6.343933e-001  7.730103e-001  0.000000e+000
    outer loop
      vertex  5.255694e+000 -7.865703e+000  7.050000e+000
      vertex  5.255694e+000 -7.865703e+000  7.500000e+000
      vertex  6.689230e+000 -6.689230e+000  7.500000e+000
    endloop
  endfacet
  facet normal -6.343933e-001  7.730103e-001  0.000000e+000
    outer loop
      vertex  5.255694e+000 -7.865703e+000  7.050000e+000
      vertex  6.689230e+000 -6.689230e+000  7.500000e+000
      vertex  6.689230e+000 -6.689230e+000  7.050000e+000
    endloop
  endfacet
  facet normal -7.730103e-001  6.343933e-001  0.000000e+000
    outer loop
      vertex  6.689230e+000 -6.689230e+000  7.050000e+000
      vertex  6.689230e+000 -6.689230e+000  7.500000e+000
      vertex  7.865703e+000 -5.255694e+000  7.500000e+000
    endloop
  endfacet
  facet normal -7.730103e-001  6.343933e-001  0.000000e+000
    outer loop
      vertex  6.689230e+000 -6.689230e+000  7.050000e+000
      vertex  7.865703e+000 -5.255694e+000  7.500000e+000
      vertex  7.865703e+000 -5.255694e+000  7.050000e+000
    endloop
  endfacet
  facet normal -8.819212e-001  4.713968e-001  0.000000e+000
    outer loop
      vertex  7.865703e+000 -5.255694e+000  7.050000e+000
      vertex  7.865703e+000 -5.255694e+000  7.500000e+000
      vertex  8.739901e+000 -3.620185e+000  7.500000e+000
    endloop
  endfacet
  facet normal -8.819212e-001  4.713968e-001  0.000000e+000
    outer loop
      vertex  7.865703e+000 -5.255694e+000  7.050000e+000
      vertex  8.739901e+000 -3.620185e+000  7.500000e+000
      vertex  8.739901e+000 -3.620185e+000  7.050000e+000
    endloop
  endfacet
  facet normal -9.569403e-001  2.902845e-001  0.000000e+000
    outer loop
      vertex  8.739901e+000 -3.620185e+000  7.050000e+000
      vertex  8.739901e+000 -3.620185e+000  7.500000e+000
      vertex  9.278229e+000 -1.845554e+000  7.500000e+000
    endloop
  endfacet
  facet normal -9.569403e-001  2.902845e-001  0.000000e+000
    outer loop
      vertex  8.739901e+000 -3.620185e+000  7.050000e+000
      vertex  9.278229e+000 -1.845554e+000  7.500000e+000
      vertex  9.278229e+000 -1.845554e+000  7.050000e+000
    endloop
  endfacet
  facet normal -9.951847e-001  9.801715e-002  0.000000e+000
    outer loop
      vertex  9.278229e+000 -1.845554e+000  7.050000e+000
      vertex  9.278229e+000 -1.845554e+000  7.500000e+000
      vertex  9.460000e+000 -2.317032e-015  7.500000e+000
    endloop
  endfacet
  facet normal -9.951847e-001  9.801715e-002  0.000000e+000
    outer loop
      vertex  9.278229e+000 -1.845554e+000  7.050000e+000
      vertex  9.460000e+000 -2.317032e-015  7.500000e+000
      vertex  9.460000e+000 -2.317032e-015  7.050000e+000
    endloop
  endfacet
  facet normal -9.801715e-002  9.951847e-001  0.000000e+000
    outer loop
      vertex  1.845554e+000 -9.278229e+000  7.500000e+000
      vertex -1.737774e-015 -9.460000e+000  7.050000e+000
      vertex -1.737774e-015 -9.460000e+000  7.500000e+000
    endloop
  endfacet
  facet normal  9.801715e-002  9.951847e-001  0.000000e+000
    outer loop
      vertex -1.737774e-015 -9.460000e+000  7.500000e+000
      vertex -1.737774e-015 -9.460000e+000  7.050000e+000
      vertex -1.845554e+000 -9.278229e+000  7.050000e+000
    endloop
  endfacet
  facet normal  9.801715e-002  9.951847e-001  -0.000000e+000
    outer loop
      vertex -1.737774e-015 -9.460000e+000  7.500000e+000
      vertex -1.845554e+000 -9.278229e+000  7.050000e+000
      vertex -1.845554e+000 -9.278229e+000  7.500000e+000
    endloop
  endfacet
  facet normal  2.902845e-001  9.569403e-001  0.000000e+000
    outer loop
      vertex -1.845554e+000 -9.278229e+000  7.500000e+000
      vertex -1.845554e+000 -9.278229e+000  7.050000e+000
      vertex -3.620185e+000 -8.739901e+000  7.050000e+000
    endloop
  endfacet
  facet normal  2.902845e-001  9.569403e-001  -0.000000e+000
    outer loop
      vertex -1.845554e+000 -9.278229e+000  7.500000e+000
      vertex -3.620185e+000 -8.739901e+000  7.050000e+000
      vertex -3.620185e+000 -8.739901e+000  7.500000e+000
    endloop
  endfacet
  facet normal  4.713968e-001  8.819212e-001  0.000000e+000
    outer loop
      vertex -3.620185e+000 -8.739901e+000  7.500000e+000
      vertex -3.620185e+000 -8.739901e+000  7.050000e+000
      vertex -5.255694e+000 -7.865703e+000  7.050000e+000
    endloop
  endfacet
  facet normal  4.713968e-001  8.819212e-001  -0.000000e+000
    outer loop
      vertex -3.620185e+000 -8.739901e+000  7.500000e+000
      vertex -5.255694e+000 -7.865703e+000  7.050000e+000
      vertex -5.255694e+000 -7.865703e+000  7.500000e+000
    endloop
  endfacet
  facet normal  6.343933e-001  7.730103e-001  0.000000e+000
    outer loop
      vertex -5.255694e+000 -7.865703e+000  7.500000e+000
      vertex -5.255694e+000 -7.865703e+000  7.050000e+000
      vertex -6.689230e+000 -6.689230e+000  7.050000e+000
    endloop
  endfacet
  facet normal  6.343933e-001  7.730103e-001  -0.000000e+000
    outer loop
      vertex -5.255694e+000 -7.865703e+000  7.500000e+000
      vertex -6.689230e+000 -6.689230e+000  7.050000e+000
      vertex -6.689230e+000 -6.689230e+000  7.500000e+000
    endloop
  endfacet
  facet normal  7.730103e-001  6.343933e-001  0.000000e+000
    outer loop
      vertex -6.689230e+000 -6.689230e+000  7.500000e+000
      vertex -6.689230e+000 -6.689230e+000  7.050000e+000
      vertex -7.865703e+000 -5.255694e+000  7.050000e+000
    endloop
  endfacet
  facet normal  7.730103e-001  6.343933e-001  -0.000000e+000
    outer loop
      vertex -6.689230e+000 -6.689230e+000  7.500000e+000
      vertex -7.865703e+000 -5.255694e+000  7.050000e+000
      vertex -7.865703e+000 -5.255694e+000  7.500000e+000
    endloop
  endfacet
  facet normal  8.819212e-001  4.713968e-001  0.000000e+000
    outer loop
      vertex -7.865703e+000 -5.255694e+000  7.500000e+000
      vertex -7.865703e+000 -5.255694e+000  7.050000e+000
      vertex -8.739901e+000 -3.620185e+000  7.050000e+000
    endloop
  endfacet
  facet normal  8.819212e-001  4.713968e-001  -0.000000e+000
    outer loop
      vertex -7.865703e+000 -5.255694e+000  7.500000e+000
      vertex -8.739901e+000 -3.620185e+000  7.050000e+000
      vertex -8.739901e+000 -3.620185e+000  7.500000e+000
    endloop
  endfacet
  facet normal  9.569403e-001  2.902845e-001  0.000000e+000
    outer loop
      vertex -8.739901e+000 -3.620185e+000  7.500000e+000
      vertex -8.739901e+000 -3.620185e+000  7.050000e+000
      vertex -9.278229e+000 -1.845554e+000  7.050000e+000
    endloop
  endfacet
  facet normal  9.569403e-001  2.902845e-001  -0.000000e+000
    outer loop
      vertex -8.739901e+000 -3.620185e+000  7.500000e+000
      vertex -9.278229e+000 -1.845554e+000  7.050000e+000
      vertex -9.278229e+000 -1.845554e+000  7.500000e+000
    endloop
  endfacet
  facet normal  9.951847e-001  9.801715e-002  0.000000e+000
    outer loop
      vertex -9.278229e+000 -1.845554e+000  7.500000e+000
      vertex -9.278229e+000 -1.845554e+000  7.050000e+000
      vertex -9.460000e+000  1.158516e-015  7.050000e+000
    endloop
  endfacet
  facet normal  9.951847e-001  9.801715e-002  -0.000000e+000
    outer loop
      vertex -9.278229e+000 -1.845554e+000  7.500000e+000
      vertex -9.460000e+000  1.158516e-015  7.050000e+000
      vertex -9.460000e+000  1.158516e-015  7.500000e+000
    endloop
  endfacet
  facet normal  9.801715e-002 -9.951847e-001  0.000000e+000
    outer loop
      vertex  1.129846e-014  9.460000e+000  7.050000e+000
      vertex -1.845554e+000  9.278229e+000  7.500000e+000
      vertex -1.845554e+000  9.278229e+000  7.050000e+000
    endloop
  endfacet
  facet normal  2.902845e-001 -9.569403e-001  0.000000e+000
    outer loop
      vertex -1.845554e+000  9.278229e+000  7.050000e+000
      vertex -1.845554e+000  9.278229e+000  7.500000e+000
      vertex -3.620185e+000  8.739901e+000  7.500000e+000
    endloop
  endfacet
  facet normal  2.902845e-001 -9.569403e-001  0.000000e+000
    outer loop
      vertex -1.845554e+000  9.278229e+000  7.050000e+000
      vertex -3.620185e+000  8.739901e+000  7.500000e+000
      vertex -3.620185e+000  8.739901e+000  7.050000e+000
    endloop
  endfacet
  facet normal  4.713968e-001 -8.819212e-001  0.000000e+000
    outer loop
      vertex -3.620185e+000  8.739901e+000  7.050000e+000
      vertex -3.620185e+000  8.739901e+000  7.500000e+000
      vertex -5.255694e+000  7.865703e+000  7.500000e+000
    endloop
  endfacet
  facet normal  4.713968e-001 -8.819212e-001  0.000000e+000
    outer loop
      vertex -3.620185e+000  8.739901e+000  7.050000e+000
      vertex -5.255694e+000  7.865703e+000  7.500000e+000
      vertex -5.255694e+000  7.865703e+000  7.050000e+000
    endloop
  endfacet
  facet normal  6.343933e-001 -7.730103e-001  0.000000e+000
    outer loop
      vertex -5.255694e+000  7.865703e+000  7.050000e+000
      vertex -5.255694e+000  7.865703e+000  7.500000e+000
      vertex -6.689230e+000  6.689230e+000  7.500000e+000
    endloop
  endfacet
  facet normal  6.343933e-001 -7.730103e-001  0.000000e+000
    outer loop
      vertex -5.255694e+000  7.865703e+000  7.050000e+000
      vertex -6.689230e+000  6.689230e+000  7.500000e+000
      vertex -6.689230e+000  6.689230e+000  7.050000e+000
    endloop
  endfacet
  facet normal  7.730103e-001 -6.343933e-001  0.000000e+000
    outer loop
      vertex -6.689230e+000  6.689230e+000  7.050000e+000
      vertex -6.689230e+000  6.689230e+000  7.500000e+000
      vertex -7.865703e+000  5.255694e+000  7.500000e+000
    endloop
  endfacet
  facet normal  7.730103e-001 -6.343933e-001  0.000000e+000
    outer loop
      vertex -6.689230e+000  6.689230e+000  7.050000e+000
      vertex -7.865703e+000  5.255694e+000  7.500000e+000
      vertex -7.865703e+000  5.255694e+000  7.050000e+000
    endloop
  endfacet
  facet normal  8.819212e-001 -4.713968e-001  0.000000e+000
    outer loop
      vertex -7.865703e+000  5.255694e+000  7.050000e+000
      vertex -7.865703e+000  5.255694e+000  7.500000e+000
      vertex -8.739901e+000  3.620185e+000  7.500000e+000
    endloop
  endfacet
  facet normal  8.819212e-001 -4.713968e-001  0.000000e+000
    outer loop
      vertex -7.865703e+000  5.255694e+000  7.050000e+000
      vertex -8.739901e+000  3.620185e+000  7.500000e+000
      vertex -8.739901e+000  3.620185e+000  7.050000e+000
    endloop
  endfacet
  facet normal  9.569403e-001 -2.902845e-001  0.000000e+000
    outer loop
      vertex -8.739901e+000  3.620185e+000  7.050000e+000
      vertex -8.739901e+000  3.620185e+000  7.500000e+000
      vertex -9.278229e+000  1.845554e+000  7.500000e+000
    endloop
  endfacet
  facet normal  9.569403e-001 -2.902845e-001  0.000000e+000
    outer loop
      vertex -8.739901e+000  3.620185e+000  7.050000e+000
      vertex -9.278229e+000  1.845554e+000  7.500000e+000
      vertex -9.278229e+000  1.845554e+000  7.050000e+000
    endloop
  endfacet
  facet normal  9.951847e-001 -9.801715e-002  0.000000e+000
    outer loop
      vertex -9.278229e+000  1.845554e+000  7.050000e+000
      vertex -9.278229e+000  1.845554e+000  7.500000e+000
      vertex -9.460000e+000  1.158516e-015  7.500000e+000
    endloop
  endfacet
  facet normal  9.951847e-001 -9.801715e-002  0.000000e+000
    outer loop
      vertex -9.278229e+000  1.845554e+000  7.050000e+000
      vertex -9.460000e+000  1.158516e-015  7.500000e+000
      vertex -9.460000e+000  1.158516e-015  7.050000e+000
    endloop
  endfacet
  facet normal  9.801715e-002 -9.951847e-001  0.000000e+000
    outer loop
      vertex -1.845554e+000  9.278229e+000  7.500000e+000
      vertex  1.129846e-014  9.460000e+000  7.050000e+000
      vertex  1.129846e-014  9.460000e+000  7.500000e+000
    endloop
  endfacet
  facet normal -9.801715e-002 -9.951847e-001  -0.000000e+000
    outer loop
      vertex  1.129846e-014  9.460000e+000  7.500000e+000
      vertex  1.129846e-014  9.460000e+000  7.050000e+000
      vertex  1.845554e+000  9.278229e+000  7.050000e+000
    endloop
  endfacet
  facet normal -9.801715e-002 -9.951847e-001  0.000000e+000
    outer loop
      vertex  1.129846e-014  9.460000e+000  7.500000e+000
      vertex  1.845554e+000  9.278229e+000  7.050000e+000
      vertex  1.845554e+000  9.278229e+000  7.500000e+000
    endloop
  endfacet
  facet normal -2.902845e-001 -9.569403e-001  -0.000000e+000
    outer loop
      vertex  1.845554e+000  9.278229e+000  7.500000e+000
      vertex  1.845554e+000  9.278229e+000  7.050000e+000
      vertex  3.620185e+000  8.739901e+000  7.050000e+000
    endloop
  endfacet
  facet normal -2.902845e-001 -9.569403e-001  0.000000e+000
    outer loop
      vertex  1.845554e+000  9.278229e+000  7.500000e+000
      vertex  3.620185e+000  8.739901e+000  7.050000e+000
      vertex  3.620185e+000  8.739901e+000  7.500000e+000
    endloop
  endfacet
  facet normal -4.713968e-001 -8.819212e-001  -0.000000e+000
    outer loop
      vertex  3.620185e+000  8.739901e+000  7.500000e+000
      vertex  3.620185e+000  8.739901e+000  7.050000e+000
      vertex  5.255694e+000  7.865703e+000  7.050000e+000
    endloop
  endfacet
  facet normal -4.713968e-001 -8.819212e-001  0.000000e+000
    outer loop
      vertex  3.620185e+000  8.739901e+000  7.500000e+000
      vertex  5.255694e+000  7.865703e+000  7.050000e+000
      vertex  5.255694e+000  7.865703e+000  7.500000e+000
    endloop
  endfacet
  facet normal -6.343933e-001 -7.730103e-001  -0.000000e+000
    outer loop
      vertex  5.255694e+000  7.865703e+000  7.500000e+000
      vertex  5.255694e+000  7.865703e+000  7.050000e+000
      vertex  6.689230e+000  6.689230e+000  7.050000e+000
    endloop
  endfacet
  facet normal -6.343933e-001 -7.730103e-001  0.000000e+000
    outer loop
      vertex  5.255694e+000  7.865703e+000  7.500000e+000
      vertex  6.689230e+000  6.689230e+000  7.050000e+000
      vertex  6.689230e+000  6.689230e+000  7.500000e+000
    endloop
  endfacet
  facet normal -7.730103e-001 -6.343933e-001  -0.000000e+000
    outer loop
      vertex  6.689230e+000  6.689230e+000  7.500000e+000
      vertex  6.689230e+000  6.689230e+000  7.050000e+000
      vertex  7.865703e+000  5.255694e+000  7.050000e+000
    endloop
  endfacet
  facet normal -7.730103e-001 -6.343933e-001  0.000000e+000
    outer loop
      vertex  6.689230e+000  6.689230e+000  7.500000e+000
      vertex  7.865703e+000  5.255694e+000  7.050000e+000
      vertex  7.865703e+000  5.255694e+000  7.500000e+000
    endloop
  endfacet
  facet normal -8.819212e-001 -4.713968e-001  -0.000000e+000
    outer loop
      vertex  7.865703e+000  5.255694e+000  7.500000e+000
      vertex  7.865703e+000  5.255694e+000  7.050000e+000
      vertex  8.739901e+000  3.620185e+000  7.050000e+000
    endloop
  endfacet
  facet normal -8.819212e-001 -4.713968e-001  0.000000e+000
    outer loop
      vertex  7.865703e+000  5.255694e+000  7.500000e+000
      vertex  8.739901e+000  3.620185e+000  7.050000e+000
      vertex  8.739901e+000  3.620185e+000  7.500000e+000
    endloop
  endfacet
  facet normal -9.569403e-001 -2.902845e-001  -0.000000e+000
    outer loop
      vertex  8.739901e+000  3.620185e+000  7.500000e+000
      vertex  8.739901e+000  3.620185e+000  7.050000e+000
      vertex  9.278229e+000  1.845554e+000  7.050000e+000
    endloop
  endfacet
  facet normal -9.569403e-001 -2.902845e-001  0.000000e+000
    outer loop
      vertex  8.739901e+000  3.620185e+000  7.500000e+000
      vertex  9.278229e+000  1.845554e+000  7.050000e+000
      vertex  9.278229e+000  1.845554e+000  7.500000e+000
    endloop
  endfacet
  facet normal -9.951847e-001 -9.801715e-002  -0.000000e+000
    outer loop
      vertex  9.278229e+000  1.845554e+000  7.500000e+000
      vertex  9.278229e+000  1.845554e+000  7.050000e+000
      vertex  9.460000e+000 -2.317032e-015  7.050000e+000
    endloop
  endfacet
  facet normal -9.951847e-001 -9.801715e-002  0.000000e+000
    outer loop
      vertex  9.278229e+000  1.845554e+000  7.500000e+000
      vertex  9.460000e+000 -2.317032e-015  7.050000e+000
      vertex  9.460000e+000 -2.317032e-015  7.500000e+000
    endloop
  endfacet
  facet normal -9.951847e-001  9.801722e-002  0.000000e+000
    outer loop
      vertex -1.033000e+001  5.852502e-015  7.050000e+000
      vertex -1.033000e+001  5.852502e-015  7.500000e+000
      vertex -1.013151e+001  2.015283e+000  7.050000e+000
    endloop
  endfacet
  facet normal -9.951847e-001  9.801722e-002  0.000000e+000
    outer loop
      vertex -1.013151e+001  2.015283e+000  7.050000e+000
      vertex -1.033000e+001  5.852502e-015  7.500000e+000
      vertex -1.013151e+001  2.015283e+000  7.500000e+000
    endloop
  endfacet
  facet normal -9.569404e-001  2.902847e-001  0.000000e+000
    outer loop
      vertex -1.013151e+001  2.015283e+000  7.050000e+000
      vertex -1.013151e+001  2.015283e+000  7.500000e+000
      vertex -9.543675e+000  3.953120e+000  7.050000e+000
    endloop
  endfacet
  facet normal -9.569404e-001  2.902847e-001  0.000000e+000
    outer loop
      vertex -9.543675e+000  3.953120e+000  7.050000e+000
      vertex -1.013151e+001  2.015283e+000  7.500000e+000
      vertex -9.543675e+000  3.953120e+000  7.500000e+000
    endloop
  endfacet
  facet normal -8.819212e-001  4.713968e-001  0.000000e+000
    outer loop
      vertex -9.543675e+000  3.953120e+000  7.050000e+000
      vertex -9.543675e+000  3.953120e+000  7.500000e+000
      vertex -8.589081e+000  5.739040e+000  7.050000e+000
    endloop
  endfacet
  facet normal -8.819212e-001  4.713968e-001  0.000000e+000
    outer loop
      vertex -8.589081e+000  5.739040e+000  7.050000e+000
      vertex -9.543675e+000  3.953120e+000  7.500000e+000
      vertex -8.589081e+000  5.739040e+000  7.500000e+000
    endloop
  endfacet
  facet normal -7.730104e-001  6.343933e-001  0.000000e+000
    outer loop
      vertex -8.589081e+000  5.739040e+000  7.050000e+000
      vertex -8.589081e+000  5.739040e+000  7.500000e+000
      vertex -7.304413e+000  7.304413e+000  7.050000e+000
    endloop
  endfacet
  facet normal -7.730104e-001  6.343933e-001  0.000000e+000
    outer loop
      vertex -7.304413e+000  7.304413e+000  7.050000e+000
      vertex -8.589081e+000  5.739040e+000  7.500000e+000
      vertex -7.304413e+000  7.304413e+000  7.500000e+000
    endloop
  endfacet
  facet normal -6.343933e-001  7.730104e-001  0.000000e+000
    outer loop
      vertex -7.304413e+000  7.304413e+000  7.050000e+000
      vertex -7.304413e+000  7.304413e+000  7.500000e+000
      vertex -5.739040e+000  8.589081e+000  7.050000e+000
    endloop
  endfacet
  facet normal -6.343933e-001  7.730104e-001  0.000000e+000
    outer loop
      vertex -5.739040e+000  8.589081e+000  7.050000e+000
      vertex -7.304413e+000  7.304413e+000  7.500000e+000
      vertex -5.739040e+000  8.589081e+000  7.500000e+000
    endloop
  endfacet
  facet normal -4.713968e-001  8.819212e-001  0.000000e+000
    outer loop
      vertex -5.739040e+000  8.589081e+000  7.050000e+000
      vertex -5.739040e+000  8.589081e+000  7.500000e+000
      vertex -3.953120e+000  9.543675e+000  7.050000e+000
    endloop
  endfacet
  facet normal -4.713968e-001  8.819212e-001  0.000000e+000
    outer loop
      vertex -3.953120e+000  9.543675e+000  7.050000e+000
      vertex -5.739040e+000  8.589081e+000  7.500000e+000
      vertex -3.953120e+000  9.543675e+000  7.500000e+000
    endloop
  endfacet
  facet normal -2.902847e-001  9.569404e-001  0.000000e+000
    outer loop
      vertex -3.953120e+000  9.543675e+000  7.050000e+000
      vertex -3.953120e+000  9.543675e+000  7.500000e+000
      vertex -2.015283e+000  1.013151e+001  7.050000e+000
    endloop
  endfacet
  facet normal -2.902847e-001  9.569404e-001  0.000000e+000
    outer loop
      vertex -2.015283e+000  1.013151e+001  7.050000e+000
      vertex -3.953120e+000  9.543675e+000  7.500000e+000
      vertex -2.015283e+000  1.013151e+001  7.500000e+000
    endloop
  endfacet
  facet normal -9.801722e-002  9.951847e-001  0.000000e+000
    outer loop
      vertex -2.015283e+000  1.013151e+001  7.050000e+000
      vertex -2.015283e+000  1.013151e+001  7.500000e+000
      vertex  2.151242e-014  1.033000e+001  7.050000e+000
    endloop
  endfacet
  facet normal -9.801722e-002  9.951847e-001  0.000000e+000
    outer loop
      vertex  2.151242e-014  1.033000e+001  7.050000e+000
      vertex -2.015283e+000  1.013151e+001  7.500000e+000
      vertex  2.151242e-014  1.033000e+001  7.500000e+000
    endloop
  endfacet
  facet normal  9.801722e-002  9.951847e-001  0.000000e+000
    outer loop
      vertex  2.151242e-014  1.033000e+001  7.050000e+000
      vertex  2.151242e-014  1.033000e+001  7.500000e+000
      vertex  2.015283e+000  1.013151e+001  7.050000e+000
    endloop
  endfacet
  facet normal  9.801722e-002  9.951847e-001  -0.000000e+000
    outer loop
      vertex  2.015283e+000  1.013151e+001  7.050000e+000
      vertex  2.151242e-014  1.033000e+001  7.500000e+000
      vertex  2.015283e+000  1.013151e+001  7.500000e+000
    endloop
  endfacet
  facet normal  2.902847e-001  9.569404e-001  0.000000e+000
    outer loop
      vertex  2.015283e+000  1.013151e+001  7.050000e+000
      vertex  2.015283e+000  1.013151e+001  7.500000e+000
      vertex  3.953120e+000  9.543675e+000  7.050000e+000
    endloop
  endfacet
  facet normal  2.902847e-001  9.569404e-001  -0.000000e+000
    outer loop
      vertex  3.953120e+000  9.543675e+000  7.050000e+000
      vertex  2.015283e+000  1.013151e+001  7.500000e+000
      vertex  3.953120e+000  9.543675e+000  7.500000e+000
    endloop
  endfacet
  facet normal  4.713968e-001  8.819212e-001  0.000000e+000
    outer loop
      vertex  3.953120e+000  9.543675e+000  7.050000e+000
      vertex  3.953120e+000  9.543675e+000  7.500000e+000
      vertex  5.739040e+000  8.589081e+000  7.050000e+000
    endloop
  endfacet
  facet normal  4.713968e-001  8.819212e-001  -0.000000e+000
    outer loop
      vertex  5.739040e+000  8.589081e+000  7.050000e+000
      vertex  3.953120e+000  9.543675e+000  7.500000e+000
      vertex  5.739040e+000  8.589081e+000  7.500000e+000
    endloop
  endfacet
  facet normal  6.343933e-001  7.730104e-001  0.000000e+000
    outer loop
      vertex  5.739040e+000  8.589081e+000  7.050000e+000
      vertex  5.739040e+000  8.589081e+000  7.500000e+000
      vertex  7.304413e+000  7.304413e+000  7.050000e+000
    endloop
  endfacet
  facet normal  6.343933e-001  7.730104e-001  -0.000000e+000
    outer loop
      vertex  7.304413e+000  7.304413e+000  7.050000e+000
      vertex  5.739040e+000  8.589081e+000  7.500000e+000
      vertex  7.304413e+000  7.304413e+000  7.500000e+000
    endloop
  endfacet
  facet normal  7.730104e-001  6.343933e-001  0.000000e+000
    outer loop
      vertex  7.304413e+000  7.304413e+000  7.050000e+000
      vertex  7.304413e+000  7.304413e+000  7.500000e+000
      vertex  8.589081e+000  5.739040e+000  7.050000e+000
    endloop
  endfacet
  facet normal  7.730104e-001  6.343933e-001  -0.000000e+000
    outer loop
      vertex  8.589081e+000  5.739040e+000  7.050000e+000
      vertex  7.304413e+000  7.304413e+000  7.500000e+000
      vertex  8.589081e+000  5.739040e+000  7.500000e+000
    endloop
  endfacet
  facet normal  8.819212e-001  4.713968e-001  0.000000e+000
    outer loop
      vertex  8.589081e+000  5.739040e+000  7.050000e+000
      vertex  8.589081e+000  5.739040e+000  7.500000e+000
      vertex  9.543675e+000  3.953120e+000  7.050000e+000
    endloop
  endfacet
  facet normal  8.819212e-001  4.713968e-001  -0.000000e+000
    outer loop
      vertex  9.543675e+000  3.953120e+000  7.050000e+000
      vertex  8.589081e+000  5.739040e+000  7.500000e+000
      vertex  9.543675e+000  3.953120e+000  7.500000e+000
    endloop
  endfacet
  facet normal  9.569404e-001  2.902847e-001  0.000000e+000
    outer loop
      vertex  9.543675e+000  3.953120e+000  7.050000e+000
      vertex  9.543675e+000  3.953120e+000  7.500000e+000
      vertex  1.013151e+001  2.015283e+000  7.050000e+000
    endloop
  endfacet
  facet normal  9.569404e-001  2.902847e-001  -0.000000e+000
    outer loop
      vertex  1.013151e+001  2.015283e+000  7.050000e+000
      vertex  9.543675e+000  3.953120e+000  7.500000e+000
      vertex  1.013151e+001  2.015283e+000  7.500000e+000
    endloop
  endfacet
  facet normal  9.951847e-001  9.801722e-002  0.000000e+000
    outer loop
      vertex  1.013151e+001  2.015283e+000  7.050000e+000
      vertex  1.013151e+001  2.015283e+000  7.500000e+000
      vertex  1.033000e+001 -1.170500e-014  7.050000e+000
    endloop
  endfacet
  facet normal  9.951847e-001  9.801722e-002  -0.000000e+000
    outer loop
      vertex  1.033000e+001 -1.170500e-014  7.050000e+000
      vertex  1.013151e+001  2.015283e+000  7.500000e+000
      vertex  1.033000e+001 -1.170500e-014  7.500000e+000
    endloop
  endfacet
  facet normal  9.951847e-001 -9.801722e-002  0.000000e+000
    outer loop
      vertex  1.033000e+001 -1.170500e-014  7.050000e+000
      vertex  1.033000e+001 -1.170500e-014  7.500000e+000
      vertex  1.013151e+001 -2.015283e+000  7.050000e+000
    endloop
  endfacet
  facet normal  9.951847e-001 -9.801722e-002  0.000000e+000
    outer loop
      vertex  1.013151e+001 -2.015283e+000  7.050000e+000
      vertex  1.033000e+001 -1.170500e-014  7.500000e+000
      vertex  1.013151e+001 -2.015283e+000  7.500000e+000
    endloop
  endfacet
  facet normal  9.569404e-001 -2.902847e-001  0.000000e+000
    outer loop
      vertex  1.013151e+001 -2.015283e+000  7.050000e+000
      vertex  1.013151e+001 -2.015283e+000  7.500000e+000
      vertex  9.543675e+000 -3.953120e+000  7.050000e+000
    endloop
  endfacet
  facet normal  9.569404e-001 -2.902847e-001  0.000000e+000
    outer loop
      vertex  9.543675e+000 -3.953120e+000  7.050000e+000
      vertex  1.013151e+001 -2.015283e+000  7.500000e+000
      vertex  9.543675e+000 -3.953120e+000  7.500000e+000
    endloop
  endfacet
  facet normal  8.819212e-001 -4.713968e-001  0.000000e+000
    outer loop
      vertex  9.543675e+000 -3.953120e+000  7.050000e+000
      vertex  9.543675e+000 -3.953120e+000  7.500000e+000
      vertex  8.589081e+000 -5.739040e+000  7.050000e+000
    endloop
  endfacet
  facet normal  8.819212e-001 -4.713968e-001  0.000000e+000
    outer loop
      vertex  8.589081e+000 -5.739040e+000  7.050000e+000
      vertex  9.543675e+000 -3.953120e+000  7.500000e+000
      vertex  8.589081e+000 -5.739040e+000  7.500000e+000
    endloop
  endfacet
  facet normal  7.730104e-001 -6.343933e-001  0.000000e+000
    outer loop
      vertex  8.589081e+000 -5.739040e+000  7.050000e+000
      vertex  8.589081e+000 -5.739040e+000  7.500000e+000
      vertex  7.304413e+000 -7.304413e+000  7.050000e+000
    endloop
  endfacet
  facet normal  7.730104e-001 -6.343933e-001  0.000000e+000
    outer loop
      vertex  7.304413e+000 -7.304413e+000  7.050000e+000
      vertex  8.589081e+000 -5.739040e+000  7.500000e+000
      vertex  7.304413e+000 -7.304413e+000  7.500000e+000
    endloop
  endfacet
  facet normal  6.343933e-001 -7.730104e-001  0.000000e+000
    outer loop
      vertex  7.304413e+000 -7.304413e+000  7.050000e+000
      vertex  7.304413e+000 -7.304413e+000  7.500000e+000
      vertex  5.739040e+000 -8.589081e+000  7.050000e+000
    endloop
  endfacet
  facet normal  6.343933e-001 -7.730104e-001  0.000000e+000
    outer loop
      vertex  5.739040e+000 -8.589081e+000  7.050000e+000
      vertex  7.304413e+000 -7.304413e+000  7.500000e+000
      vertex  5.739040e+000 -8.589081e+000  7.500000e+000
    endloop
  endfacet
  facet normal  4.713968e-001 -8.819212e-001  0.000000e+000
    outer loop
      vertex  5.739040e+000 -8.589081e+000  7.050000e+000
      vertex  5.739040e+000 -8.589081e+000  7.500000e+000
      vertex  3.953120e+000 -9.543675e+000  7.050000e+000
    endloop
  endfacet
  facet normal  4.713968e-001 -8.819212e-001  0.000000e+000
    outer loop
      vertex  3.953120e+000 -9.543675e+000  7.050000e+000
      vertex  5.739040e+000 -8.589081e+000  7.500000e+000
      vertex  3.953120e+000 -9.543675e+000  7.500000e+000
    endloop
  endfacet
  facet normal  2.902847e-001 -9.569404e-001  0.000000e+000
    outer loop
      vertex  3.953120e+000 -9.543675e+000  7.050000e+000
      vertex  3.953120e+000 -9.543675e+000  7.500000e+000
      vertex  2.015283e+000 -1.013151e+001  7.050000e+000
    endloop
  endfacet
  facet normal  2.902847e-001 -9.569404e-001  0.000000e+000
    outer loop
      vertex  2.015283e+000 -1.013151e+001  7.050000e+000
      vertex  3.953120e+000 -9.543675e+000  7.500000e+000
      vertex  2.015283e+000 -1.013151e+001  7.500000e+000
    endloop
  endfacet
  facet normal  9.801722e-002 -9.951847e-001  0.000000e+000
    outer loop
      vertex  2.015283e+000 -1.013151e+001  7.050000e+000
      vertex  2.015283e+000 -1.013151e+001  7.500000e+000
      vertex -1.897590e-015 -1.033000e+001  7.050000e+000
    endloop
  endfacet
  facet normal  9.801722e-002 -9.951847e-001  0.000000e+000
    outer loop
      vertex -1.897590e-015 -1.033000e+001  7.050000e+000
      vertex  2.015283e+000 -1.013151e+001  7.500000e+000
      vertex -1.897590e-015 -1.033000e+001  7.500000e+000
    endloop
  endfacet
  facet normal -9.801722e-002 -9.951847e-001  -0.000000e+000
    outer loop
      vertex -1.897590e-015 -1.033000e+001  7.050000e+000
      vertex -1.897590e-015 -1.033000e+001  7.500000e+000
      vertex -2.015283e+000 -1.013151e+001  7.050000e+000
    endloop
  endfacet
  facet normal -9.801722e-002 -9.951847e-001  0.000000e+000
    outer loop
      vertex -2.015283e+000 -1.013151e+001  7.050000e+000
      vertex -1.897590e-015 -1.033000e+001  7.500000e+000
      vertex -2.015283e+000 -1.013151e+001  7.500000e+000
    endloop
  endfacet
  facet normal -2.902847e-001 -9.569404e-001  -0.000000e+000
    outer loop
      vertex -2.015283e+000 -1.013151e+001  7.050000e+000
      vertex -2.015283e+000 -1.013151e+001  7.500000e+000
      vertex -3.953120e+000 -9.543675e+000  7.050000e+000
    endloop
  endfacet
  facet normal -2.902847e-001 -9.569404e-001  0.000000e+000
    outer loop
      vertex -3.953120e+000 -9.543675e+000  7.050000e+000
      vertex -2.015283e+000 -1.013151e+001  7.500000e+000
      vertex -3.953120e+000 -9.543675e+000  7.500000e+000
    endloop
  endfacet
  facet normal -4.713968e-001 -8.819212e-001  -0.000000e+000
    outer loop
      vertex -3.953120e+000 -9.543675e+000  7.050000e+000
      vertex -3.953120e+000 -9.543675e+000  7.500000e+000
      vertex -5.739040e+000 -8.589081e+000  7.050000e+000
    endloop
  endfacet
  facet normal -4.713968e-001 -8.819212e-001  0.000000e+000
    outer loop
      vertex -5.739040e+000 -8.589081e+000  7.050000e+000
      vertex -3.953120e+000 -9.543675e+000  7.500000e+000
      vertex -5.739040e+000 -8.589081e+000  7.500000e+000
    endloop
  endfacet
  facet normal -6.343933e-001 -7.730104e-001  -0.000000e+000
    outer loop
      vertex -5.739040e+000 -8.589081e+000  7.050000e+000
      vertex -5.739040e+000 -8.589081e+000  7.500000e+000
      vertex -7.304413e+000 -7.304413e+000  7.050000e+000
    endloop
  endfacet
  facet normal -6.343933e-001 -7.730104e-001  0.000000e+000
    outer loop
      vertex -7.304413e+000 -7.304413e+000  7.050000e+000
      vertex -5.739040e+000 -8.589081e+000  7.500000e+000
      vertex -7.304413e+000 -7.304413e+000  7.500000e+000
    endloop
  endfacet
  facet normal -7.730104e-001 -6.343933e-001  -0.000000e+000
    outer loop
      vertex -7.304413e+000 -7.304413e+000  7.050000e+000
      vertex -7.304413e+000 -7.304413e+000  7.500000e+000
      vertex -8.589081e+000 -5.739040e+000  7.050000e+000
    endloop
  endfacet
  facet normal -7.730104e-001 -6.343933e-001  0.000000e+000
    outer loop
      vertex -8.589081e+000 -5.739040e+000  7.050000e+000
      vertex -7.304413e+000 -7.304413e+000  7.500000e+000
      vertex -8.589081e+000 -5.739040e+000  7.500000e+000
    endloop
  endfacet
  facet normal -8.819212e-001 -4.713968e-001  -0.000000e+000
    outer loop
      vertex -8.589081e+000 -5.739040e+000  7.050000e+000
      vertex -8.589081e+000 -5.739040e+000  7.500000e+000
      vertex -9.543675e+000 -3.953120e+000  7.050000e+000
    endloop
  endfacet
  facet normal -8.819212e-001 -4.713968e-001  0.000000e+000
    outer loop
      vertex -9.543675e+000 -3.953120e+000  7.050000e+000
      vertex -8.589081e+000 -5.739040e+000  7.500000e+000
      vertex -9.543675e+000 -3.953120e+000  7.500000e+000
    endloop
  endfacet
  facet normal -9.569404e-001 -2.902847e-001  -0.000000e+000
    outer loop
      vertex -9.543675e+000 -3.953120e+000  7.050000e+000
      vertex -9.543675e+000 -3.953120e+000  7.500000e+000
      vertex -1.013151e+001 -2.015283e+000  7.050000e+000
    endloop
  endfacet
  facet normal -9.569404e-001 -2.902847e-001  0.000000e+000
    outer loop
      vertex -1.013151e+001 -2.015283e+000  7.050000e+000
      vertex -9.543675e+000 -3.953120e+000  7.500000e+000
      vertex -1.013151e+001 -2.015283e+000  7.500000e+000
    endloop
  endfacet
  facet normal -9.951847e-001 -9.801722e-002  -0.000000e+000
    outer loop
      vertex -1.013151e+001 -2.015283e+000  7.050000e+000
      vertex -1.013151e+001 -2.015283e+000  7.500000e+000
      vertex -1.033000e+001  5.852502e-015  7.050000e+000
    endloop
  endfacet
  facet normal -9.951847e-001 -9.801722e-002  0.000000e+000
    outer loop
      vertex -1.033000e+001  5.852502e-015  7.050000e+000
      vertex -1.013151e+001 -2.015283e+000  7.500000e+000
      vertex -1.033000e+001  5.852502e-015  7.500000e+000
    endloop
  endfacet
endsolid CATIA STL
