solid CATIA STL
  facet normal  0.000000e+000  -0.000000e+000 -1.000000e+000
    outer loop
      vertex  2.864743e+000 -4.671595e+000  7.050000e+000
      vertex  3.874886e+000 -3.874886e+000  7.050000e+000
      vertex  4.490053e+000 -4.490053e+000  7.050000e+000
    endloop
  endfacet
  facet normal  0.000000e+000  0.000000e+000 -1.000000e+000
    outer loop
      vertex  4.490053e+000 -4.490053e+000  7.050000e+000
      vertex  3.874886e+000 -3.874886e+000  7.050000e+000
      vertex  4.671595e+000 -2.864743e+000  7.050000e+000
    endloop
  endfacet
  facet normal  0.000000e+000  -0.000000e+000 -1.000000e+000
    outer loop
      vertex  4.490053e+000 -4.490053e+000  7.050000e+000
      vertex  4.671595e+000 -2.864743e+000  7.050000e+000
      vertex  5.425285e+000 -3.299848e+000  7.050000e+000
    endloop
  endfacet
  facet normal  0.000000e+000  0.000000e+000 -1.000000e+000
    outer loop
      vertex  5.425285e+000 -3.299848e+000  7.050000e+000
      vertex  4.671595e+000 -2.864743e+000  7.050000e+000
      vertex  5.210820e+000 -1.696689e+000  7.050000e+000
    endloop
  endfacet
  facet normal  0.000000e+000  0.000000e+000 -1.000000e+000
    outer loop
      vertex  5.425285e+000 -3.299848e+000  7.050000e+000
      vertex  5.210820e+000 -1.696689e+000  7.050000e+000
      vertex  6.052227e+000 -1.922112e+000  7.050000e+000
    endloop
  endfacet
  facet normal  0.000000e+000  0.000000e+000 -1.000000e+000
    outer loop
      vertex  6.052227e+000 -1.922112e+000  7.050000e+000
      vertex  5.210820e+000 -1.696689e+000  7.050000e+000
      vertex  5.462708e+000 -4.350000e-001  7.050000e+000
    endloop
  endfacet
  facet normal  0.000000e+000  0.000000e+000 -1.000000e+000
    outer loop
      vertex  6.052227e+000 -1.922112e+000  7.050000e+000
      vertex  5.462708e+000 -4.350000e-001  7.050000e+000
      vertex  6.335083e+000 -4.350000e-001  7.050000e+000
    endloop
  endfacet
  facet normal  0.000000e+000  -0.000000e+000 -1.000000e+000
    outer loop
      vertex  4.350000e-001 -5.462708e+000  7.050000e+000
      vertex  1.696689e+000 -5.210820e+000  7.050000e+000
      vertex  3.299848e+000 -5.425285e+000  7.050000e+000
    endloop
  endfacet
  facet normal  0.000000e+000  0.000000e+000 -1.000000e+000
    outer loop
      vertex  3.299848e+000 -5.425285e+000  7.050000e+000
      vertex  1.696689e+000 -5.210820e+000  7.050000e+000
      vertex  2.864743e+000 -4.671595e+000  7.050000e+000
    endloop
  endfacet
  facet normal  0.000000e+000  0.000000e+000 -1.000000e+000
    outer loop
      vertex  3.299848e+000 -5.425285e+000  7.050000e+000
      vertex  2.864743e+000 -4.671595e+000  7.050000e+000
      vertex  4.490053e+000 -4.490053e+000  7.050000e+000
    endloop
  endfacet
  facet normal  0.000000e+000  0.000000e+000 -1.000000e+000
    outer loop
      vertex  4.350000e-001 -5.462708e+000  7.050000e+000
      vertex  3.299848e+000 -5.425285e+000  7.050000e+000
      vertex  4.350000e-001 -6.335083e+000  7.050000e+000
    endloop
  endfacet
  facet normal  0.000000e+000  0.000000e+000 -1.000000e+000
    outer loop
      vertex  4.350000e-001 -6.335083e+000  7.050000e+000
      vertex  3.299848e+000 -5.425285e+000  7.050000e+000
      vertex  1.922112e+000 -6.052227e+000  7.050000e+000
    endloop
  endfacet
  facet normal  -0.000000e+000  0.000000e+000  1.000000e+000
    outer loop
      vertex  6.335083e+000 -4.350000e-001  7.500000e+000
      vertex  5.462708e+000 -4.350000e-001  7.500000e+000
      vertex  6.052227e+000 -1.922112e+000  7.500000e+000
    endloop
  endfacet
  facet normal  0.000000e+000  0.000000e+000  1.000000e+000
    outer loop
      vertex  6.052227e+000 -1.922112e+000  7.500000e+000
      vertex  5.462708e+000 -4.350000e-001  7.500000e+000
      vertex  5.210820e+000 -1.696689e+000  7.500000e+000
    endloop
  endfacet
  facet normal  0.000000e+000  0.000000e+000  1.000000e+000
    outer loop
      vertex  6.052227e+000 -1.922112e+000  7.500000e+000
      vertex  5.210820e+000 -1.696689e+000  7.500000e+000
      vertex  5.425285e+000 -3.299848e+000  7.500000e+000
    endloop
  endfacet
  facet normal  0.000000e+000  0.000000e+000  1.000000e+000
    outer loop
      vertex  5.425285e+000 -3.299848e+000  7.500000e+000
      vertex  5.210820e+000 -1.696689e+000  7.500000e+000
      vertex  4.671595e+000 -2.864743e+000  7.500000e+000
    endloop
  endfacet
  facet normal  0.000000e+000  0.000000e+000  1.000000e+000
    outer loop
      vertex  5.425285e+000 -3.299848e+000  7.500000e+000
      vertex  4.671595e+000 -2.864743e+000  7.500000e+000
      vertex  4.490053e+000 -4.490053e+000  7.500000e+000
    endloop
  endfacet
  facet normal  0.000000e+000  -0.000000e+000  1.000000e+000
    outer loop
      vertex  4.490053e+000 -4.490053e+000  7.500000e+000
      vertex  4.671595e+000 -2.864743e+000  7.500000e+000
      vertex  3.874886e+000 -3.874886e+000  7.500000e+000
    endloop
  endfacet
  facet normal  0.000000e+000  0.000000e+000  1.000000e+000
    outer loop
      vertex  4.490053e+000 -4.490053e+000  7.500000e+000
      vertex  3.874886e+000 -3.874886e+000  7.500000e+000
      vertex  2.864743e+000 -4.671595e+000  7.500000e+000
    endloop
  endfacet
  facet normal  -0.000000e+000  0.000000e+000  1.000000e+000
    outer loop
      vertex  4.490053e+000 -4.490053e+000  7.500000e+000
      vertex  2.864743e+000 -4.671595e+000  7.500000e+000
      vertex  3.299848e+000 -5.425285e+000  7.500000e+000
    endloop
  endfacet
  facet normal  0.000000e+000  0.000000e+000  1.000000e+000
    outer loop
      vertex  3.299848e+000 -5.425285e+000  7.500000e+000
      vertex  2.864743e+000 -4.671595e+000  7.500000e+000
      vertex  1.696689e+000 -5.210820e+000  7.500000e+000
    endloop
  endfacet
  facet normal  0.000000e+000  0.000000e+000  1.000000e+000
    outer loop
      vertex  3.299848e+000 -5.425285e+000  7.500000e+000
      vertex  1.696689e+000 -5.210820e+000  7.500000e+000
      vertex  4.350000e-001 -5.462708e+000  7.500000e+000
    endloop
  endfacet
  facet normal  0.000000e+000  0.000000e+000  1.000000e+000
    outer loop
      vertex  4.350000e-001 -5.462708e+000  7.500000e+000
      vertex  4.350000e-001 -6.335083e+000  7.500000e+000
      vertex  3.299848e+000 -5.425285e+000  7.500000e+000
    endloop
  endfacet
  facet normal  0.000000e+000  0.000000e+000  9.999999e-001
    outer loop
      vertex  3.299848e+000 -5.425285e+000  7.500000e+000
      vertex  4.350000e-001 -6.335083e+000  7.500000e+000
      vertex  1.922112e+000 -6.052227e+000  7.500000e+000
    endloop
  endfacet
  facet normal -6.192746e-001  7.851746e-001  0.000000e+000
    outer loop
      vertex  3.874886e+000 -3.874886e+000  7.500000e+000
      vertex  2.864743e+000 -4.671595e+000  7.050000e+000
      vertex  2.864743e+000 -4.671595e+000  7.500000e+000
    endloop
  endfacet
  facet normal -4.191373e-001  9.079229e-001  0.000000e+000
    outer loop
      vertex  2.864743e+000 -4.671595e+000  7.500000e+000
      vertex  2.864743e+000 -4.671595e+000  7.050000e+000
      vertex  1.696689e+000 -5.210820e+000  7.050000e+000
    endloop
  endfacet
  facet normal -4.191373e-001  9.079229e-001  0.000000e+000
    outer loop
      vertex  2.864743e+000 -4.671595e+000  7.500000e+000
      vertex  1.696689e+000 -5.210820e+000  7.050000e+000
      vertex  1.696689e+000 -5.210820e+000  7.500000e+000
    endloop
  endfacet
  facet normal -1.957794e-001  9.806480e-001  0.000000e+000
    outer loop
      vertex  1.696689e+000 -5.210820e+000  7.500000e+000
      vertex  1.696689e+000 -5.210820e+000  7.050000e+000
      vertex  4.350000e-001 -5.462708e+000  7.050000e+000
    endloop
  endfacet
  facet normal -1.957794e-001  9.806480e-001  0.000000e+000
    outer loop
      vertex  1.696689e+000 -5.210820e+000  7.500000e+000
      vertex  4.350000e-001 -5.462708e+000  7.050000e+000
      vertex  4.350000e-001 -5.462708e+000  7.500000e+000
    endloop
  endfacet
  facet normal -6.192746e-001  7.851746e-001  0.000000e+000
    outer loop
      vertex  2.864743e+000 -4.671595e+000  7.050000e+000
      vertex  3.874886e+000 -3.874886e+000  7.500000e+000
      vertex  3.874886e+000 -3.874886e+000  7.050000e+000
    endloop
  endfacet
  facet normal -7.851746e-001  6.192746e-001  0.000000e+000
    outer loop
      vertex  3.874886e+000 -3.874886e+000  7.050000e+000
      vertex  3.874886e+000 -3.874886e+000  7.500000e+000
      vertex  4.671595e+000 -2.864743e+000  7.500000e+000
    endloop
  endfacet
  facet normal -7.851746e-001  6.192746e-001  0.000000e+000
    outer loop
      vertex  3.874886e+000 -3.874886e+000  7.050000e+000
      vertex  4.671595e+000 -2.864743e+000  7.500000e+000
      vertex  4.671595e+000 -2.864743e+000  7.050000e+000
    endloop
  endfacet
  facet normal -9.079229e-001  4.191373e-001  0.000000e+000
    outer loop
      vertex  4.671595e+000 -2.864743e+000  7.050000e+000
      vertex  4.671595e+000 -2.864743e+000  7.500000e+000
      vertex  5.210820e+000 -1.696689e+000  7.500000e+000
    endloop
  endfacet
  facet normal -9.079229e-001  4.191373e-001  0.000000e+000
    outer loop
      vertex  4.671595e+000 -2.864743e+000  7.050000e+000
      vertex  5.210820e+000 -1.696689e+000  7.500000e+000
      vertex  5.210820e+000 -1.696689e+000  7.050000e+000
    endloop
  endfacet
  facet normal -9.806480e-001  1.957794e-001  0.000000e+000
    outer loop
      vertex  5.210820e+000 -1.696689e+000  7.050000e+000
      vertex  5.210820e+000 -1.696689e+000  7.500000e+000
      vertex  5.462708e+000 -4.350000e-001  7.500000e+000
    endloop
  endfacet
  facet normal -9.806480e-001  1.957794e-001  0.000000e+000
    outer loop
      vertex  5.210820e+000 -1.696689e+000  7.050000e+000
      vertex  5.462708e+000 -4.350000e-001  7.500000e+000
      vertex  5.462708e+000 -4.350000e-001  7.050000e+000
    endloop
  endfacet
  facet normal  0.000000e+000  1.000000e+000  0.000000e+000
    outer loop
      vertex  6.335083e+000 -4.350000e-001  7.050000e+000
      vertex  5.462708e+000 -4.350000e-001  7.050000e+000
      vertex  6.335083e+000 -4.350000e-001  7.500000e+000
    endloop
  endfacet
  facet normal  0.000000e+000  1.000000e+000  0.000000e+000
    outer loop
      vertex  6.335083e+000 -4.350000e-001  7.500000e+000
      vertex  5.462708e+000 -4.350000e-001  7.050000e+000
      vertex  5.462708e+000 -4.350000e-001  7.500000e+000
    endloop
  endfacet
  facet normal  7.862953e-001 -6.178509e-001  0.000000e+000
    outer loop
      vertex  4.490053e+000 -4.490053e+000  7.500000e+000
      vertex  5.425285e+000 -3.299848e+000  7.050000e+000
      vertex  5.425285e+000 -3.299848e+000  7.500000e+000
    endloop
  endfacet
  facet normal  9.101926e-001 -4.141853e-001  0.000000e+000
    outer loop
      vertex  5.425285e+000 -3.299848e+000  7.500000e+000
      vertex  5.425285e+000 -3.299848e+000  7.050000e+000
      vertex  6.052227e+000 -1.922112e+000  7.050000e+000
    endloop
  endfacet
  facet normal  9.101926e-001 -4.141853e-001  0.000000e+000
    outer loop
      vertex  5.425285e+000 -3.299848e+000  7.500000e+000
      vertex  6.052227e+000 -1.922112e+000  7.050000e+000
      vertex  6.052227e+000 -1.922112e+000  7.500000e+000
    endloop
  endfacet
  facet normal  9.823875e-001 -1.868547e-001  0.000000e+000
    outer loop
      vertex  6.052227e+000 -1.922112e+000  7.500000e+000
      vertex  6.052227e+000 -1.922112e+000  7.050000e+000
      vertex  6.335083e+000 -4.350000e-001  7.050000e+000
    endloop
  endfacet
  facet normal  9.823875e-001 -1.868547e-001  0.000000e+000
    outer loop
      vertex  6.052227e+000 -1.922112e+000  7.500000e+000
      vertex  6.335083e+000 -4.350000e-001  7.050000e+000
      vertex  6.335083e+000 -4.350000e-001  7.500000e+000
    endloop
  endfacet
  facet normal  7.862953e-001 -6.178509e-001  0.000000e+000
    outer loop
      vertex  5.425285e+000 -3.299848e+000  7.050000e+000
      vertex  4.490053e+000 -4.490053e+000  7.500000e+000
      vertex  4.490053e+000 -4.490053e+000  7.050000e+000
    endloop
  endfacet
  facet normal  6.178509e-001 -7.862953e-001  0.000000e+000
    outer loop
      vertex  4.490053e+000 -4.490053e+000  7.050000e+000
      vertex  4.490053e+000 -4.490053e+000  7.500000e+000
      vertex  3.299848e+000 -5.425285e+000  7.500000e+000
    endloop
  endfacet
  facet normal  6.178509e-001 -7.862953e-001  0.000000e+000
    outer loop
      vertex  4.490053e+000 -4.490053e+000  7.050000e+000
      vertex  3.299848e+000 -5.425285e+000  7.500000e+000
      vertex  3.299848e+000 -5.425285e+000  7.050000e+000
    endloop
  endfacet
  facet normal  4.141853e-001 -9.101926e-001  0.000000e+000
    outer loop
      vertex  3.299848e+000 -5.425285e+000  7.050000e+000
      vertex  3.299848e+000 -5.425285e+000  7.500000e+000
      vertex  1.922112e+000 -6.052227e+000  7.500000e+000
    endloop
  endfacet
  facet normal  4.141853e-001 -9.101926e-001  0.000000e+000
    outer loop
      vertex  3.299848e+000 -5.425285e+000  7.050000e+000
      vertex  1.922112e+000 -6.052227e+000  7.500000e+000
      vertex  1.922112e+000 -6.052227e+000  7.050000e+000
    endloop
  endfacet
  facet normal  1.868547e-001 -9.823875e-001  0.000000e+000
    outer loop
      vertex  1.922112e+000 -6.052227e+000  7.050000e+000
      vertex  1.922112e+000 -6.052227e+000  7.500000e+000
      vertex  4.350000e-001 -6.335083e+000  7.500000e+000
    endloop
  endfacet
  facet normal  1.868547e-001 -9.823875e-001  0.000000e+000
    outer loop
      vertex  1.922112e+000 -6.052227e+000  7.050000e+000
      vertex  4.350000e-001 -6.335083e+000  7.500000e+000
      vertex  4.350000e-001 -6.335083e+000  7.050000e+000
    endloop
  endfacet
  facet normal -1.000000e+000  0.000000e+000  0.000000e+000
    outer loop
      vertex  4.350000e-001 -5.462708e+000  7.050000e+000
      vertex  4.350000e-001 -6.335083e+000  7.050000e+000
      vertex  4.350000e-001 -5.462708e+000  7.500000e+000
    endloop
  endfacet
  facet normal -1.000000e+000  -0.000000e+000  0.000000e+000
    outer loop
      vertex  4.350000e-001 -5.462708e+000  7.500000e+000
      vertex  4.350000e-001 -6.335083e+000  7.050000e+000
      vertex  4.350000e-001 -6.335083e+000  7.500000e+000
    endloop
  endfacet
  facet normal  0.000000e+000  0.000000e+000 -1.000000e+000
    outer loop
      vertex -1.696689e+000  5.210820e+000  7.050000e+000
      vertex -3.299848e+000  5.425285e+000  7.050000e+000
      vertex -4.350000e-001  5.462708e+000  7.050000e+000
    endloop
  endfacet
  facet normal  -0.000000e+000  0.000000e+000 -1.000000e+000
    outer loop
      vertex -4.350000e-001  5.462708e+000  7.050000e+000
      vertex -3.299848e+000  5.425285e+000  7.050000e+000
      vertex -1.922112e+000  6.052227e+000  7.050000e+000
    endloop
  endfacet
  facet normal  0.000000e+000  0.000000e+000 -1.000000e+000
    outer loop
      vertex -4.350000e-001  5.462708e+000  7.050000e+000
      vertex -1.922112e+000  6.052227e+000  7.050000e+000
      vertex -4.350000e-001  6.335083e+000  7.050000e+000
    endloop
  endfacet
  facet normal  0.000000e+000  0.000000e+000 -1.000000e+000
    outer loop
      vertex -4.671595e+000  2.864743e+000  7.050000e+000
      vertex -5.425285e+000  3.299848e+000  7.050000e+000
      vertex -3.874886e+000  3.874886e+000  7.050000e+000
    endloop
  endfacet
  facet normal  -0.000000e+000  0.000000e+000 -1.000000e+000
    outer loop
      vertex -3.874886e+000  3.874886e+000  7.050000e+000
      vertex -5.425285e+000  3.299848e+000  7.050000e+000
      vertex -4.490053e+000  4.490053e+000  7.050000e+000
    endloop
  endfacet
  facet normal  0.000000e+000  0.000000e+000 -1.000000e+000
    outer loop
      vertex -3.874886e+000  3.874886e+000  7.050000e+000
      vertex -4.490053e+000  4.490053e+000  7.050000e+000
      vertex -2.864743e+000  4.671595e+000  7.050000e+000
    endloop
  endfacet
  facet normal  -0.000000e+000  0.000000e+000 -1.000000e+000
    outer loop
      vertex -2.864743e+000  4.671595e+000  7.050000e+000
      vertex -4.490053e+000  4.490053e+000  7.050000e+000
      vertex -3.299848e+000  5.425285e+000  7.050000e+000
    endloop
  endfacet
  facet normal  0.000000e+000  0.000000e+000 -1.000000e+000
    outer loop
      vertex -2.864743e+000  4.671595e+000  7.050000e+000
      vertex -3.299848e+000  5.425285e+000  7.050000e+000
      vertex -1.696689e+000  5.210820e+000  7.050000e+000
    endloop
  endfacet
  facet normal  0.000000e+000  0.000000e+000 -1.000000e+000
    outer loop
      vertex -4.671595e+000  2.864743e+000  7.050000e+000
      vertex -5.210820e+000  1.696689e+000  7.050000e+000
      vertex -5.425285e+000  3.299848e+000  7.050000e+000
    endloop
  endfacet
  facet normal  0.000000e+000  -0.000000e+000 -1.000000e+000
    outer loop
      vertex -5.425285e+000  3.299848e+000  7.050000e+000
      vertex -5.210820e+000  1.696689e+000  7.050000e+000
      vertex -6.052227e+000  1.922112e+000  7.050000e+000
    endloop
  endfacet
  facet normal  0.000000e+000  0.000000e+000 -1.000000e+000
    outer loop
      vertex -5.210820e+000  1.696689e+000  7.050000e+000
      vertex -5.462708e+000  4.350000e-001  7.050000e+000
      vertex -6.052227e+000  1.922112e+000  7.050000e+000
    endloop
  endfacet
  facet normal  0.000000e+000  -0.000000e+000 -1.000000e+000
    outer loop
      vertex -6.052227e+000  1.922112e+000  7.050000e+000
      vertex -5.462708e+000  4.350000e-001  7.050000e+000
      vertex -6.335083e+000  4.350000e-001  7.050000e+000
    endloop
  endfacet
  facet normal  -0.000000e+000  0.000000e+000  1.000000e+000
    outer loop
      vertex -4.350000e-001  6.335083e+000  7.500000e+000
      vertex -1.922112e+000  6.052227e+000  7.500000e+000
      vertex -4.350000e-001  5.462708e+000  7.500000e+000
    endloop
  endfacet
  facet normal  0.000000e+000  0.000000e+000  1.000000e+000
    outer loop
      vertex -4.350000e-001  5.462708e+000  7.500000e+000
      vertex -1.922112e+000  6.052227e+000  7.500000e+000
      vertex -3.299848e+000  5.425285e+000  7.500000e+000
    endloop
  endfacet
  facet normal  -0.000000e+000  0.000000e+000  1.000000e+000
    outer loop
      vertex -4.350000e-001  5.462708e+000  7.500000e+000
      vertex -3.299848e+000  5.425285e+000  7.500000e+000
      vertex -1.696689e+000  5.210820e+000  7.500000e+000
    endloop
  endfacet
  facet normal  0.000000e+000  0.000000e+000  1.000000e+000
    outer loop
      vertex -1.696689e+000  5.210820e+000  7.500000e+000
      vertex -3.299848e+000  5.425285e+000  7.500000e+000
      vertex -2.864743e+000  4.671595e+000  7.500000e+000
    endloop
  endfacet
  facet normal  0.000000e+000  0.000000e+000  1.000000e+000
    outer loop
      vertex -2.864743e+000  4.671595e+000  7.500000e+000
      vertex -3.299848e+000  5.425285e+000  7.500000e+000
      vertex -4.490053e+000  4.490053e+000  7.500000e+000
    endloop
  endfacet
  facet normal  -0.000000e+000  0.000000e+000  1.000000e+000
    outer loop
      vertex -2.864743e+000  4.671595e+000  7.500000e+000
      vertex -4.490053e+000  4.490053e+000  7.500000e+000
      vertex -3.874886e+000  3.874886e+000  7.500000e+000
    endloop
  endfacet
  facet normal  0.000000e+000  0.000000e+000  1.000000e+000
    outer loop
      vertex -3.874886e+000  3.874886e+000  7.500000e+000
      vertex -4.490053e+000  4.490053e+000  7.500000e+000
      vertex -5.425285e+000  3.299848e+000  7.500000e+000
    endloop
  endfacet
  facet normal  -0.000000e+000  0.000000e+000  1.000000e+000
    outer loop
      vertex -3.874886e+000  3.874886e+000  7.500000e+000
      vertex -5.425285e+000  3.299848e+000  7.500000e+000
      vertex -4.671595e+000  2.864743e+000  7.500000e+000
    endloop
  endfacet
  facet normal  0.000000e+000  0.000000e+000  1.000000e+000
    outer loop
      vertex -4.671595e+000  2.864743e+000  7.500000e+000
      vertex -5.425285e+000  3.299848e+000  7.500000e+000
      vertex -5.210820e+000  1.696689e+000  7.500000e+000
    endloop
  endfacet
  facet normal  0.000000e+000  0.000000e+000  1.000000e+000
    outer loop
      vertex -5.210820e+000  1.696689e+000  7.500000e+000
      vertex -5.425285e+000  3.299848e+000  7.500000e+000
      vertex -6.052227e+000  1.922112e+000  7.500000e+000
    endloop
  endfacet
  facet normal  0.000000e+000  0.000000e+000  1.000000e+000
    outer loop
      vertex -5.210820e+000  1.696689e+000  7.500000e+000
      vertex -6.052227e+000  1.922112e+000  7.500000e+000
      vertex -5.462708e+000  4.350000e-001  7.500000e+000
    endloop
  endfacet
  facet normal  0.000000e+000  0.000000e+000  1.000000e+000
    outer loop
      vertex -5.462708e+000  4.350000e-001  7.500000e+000
      vertex -6.052227e+000  1.922112e+000  7.500000e+000
      vertex -6.335083e+000  4.350000e-001  7.500000e+000
    endloop
  endfacet
  facet normal  6.192746e-001 -7.851746e-001  0.000000e+000
    outer loop
      vertex -3.874886e+000  3.874886e+000  7.500000e+000
      vertex -2.864743e+000  4.671595e+000  7.050000e+000
      vertex -2.864743e+000  4.671595e+000  7.500000e+000
    endloop
  endfacet
  facet normal  4.191373e-001 -9.079229e-001  0.000000e+000
    outer loop
      vertex -2.864743e+000  4.671595e+000  7.500000e+000
      vertex -2.864743e+000  4.671595e+000  7.050000e+000
      vertex -1.696689e+000  5.210820e+000  7.050000e+000
    endloop
  endfacet
  facet normal  4.191373e-001 -9.079229e-001  0.000000e+000
    outer loop
      vertex -2.864743e+000  4.671595e+000  7.500000e+000
      vertex -1.696689e+000  5.210820e+000  7.050000e+000
      vertex -1.696689e+000  5.210820e+000  7.500000e+000
    endloop
  endfacet
  facet normal  1.957794e-001 -9.806480e-001  0.000000e+000
    outer loop
      vertex -1.696689e+000  5.210820e+000  7.500000e+000
      vertex -1.696689e+000  5.210820e+000  7.050000e+000
      vertex -4.350000e-001  5.462708e+000  7.050000e+000
    endloop
  endfacet
  facet normal  1.957794e-001 -9.806480e-001  0.000000e+000
    outer loop
      vertex -1.696689e+000  5.210820e+000  7.500000e+000
      vertex -4.350000e-001  5.462708e+000  7.050000e+000
      vertex -4.350000e-001  5.462708e+000  7.500000e+000
    endloop
  endfacet
  facet normal  6.192746e-001 -7.851746e-001  0.000000e+000
    outer loop
      vertex -2.864743e+000  4.671595e+000  7.050000e+000
      vertex -3.874886e+000  3.874886e+000  7.500000e+000
      vertex -3.874886e+000  3.874886e+000  7.050000e+000
    endloop
  endfacet
  facet normal  7.851746e-001 -6.192746e-001  0.000000e+000
    outer loop
      vertex -3.874886e+000  3.874886e+000  7.050000e+000
      vertex -3.874886e+000  3.874886e+000  7.500000e+000
      vertex -4.671595e+000  2.864743e+000  7.500000e+000
    endloop
  endfacet
  facet normal  7.851746e-001 -6.192746e-001  0.000000e+000
    outer loop
      vertex -3.874886e+000  3.874886e+000  7.050000e+000
      vertex -4.671595e+000  2.864743e+000  7.500000e+000
      vertex -4.671595e+000  2.864743e+000  7.050000e+000
    endloop
  endfacet
  facet normal  9.079229e-001 -4.191373e-001  0.000000e+000
    outer loop
      vertex -4.671595e+000  2.864743e+000  7.050000e+000
      vertex -4.671595e+000  2.864743e+000  7.500000e+000
      vertex -5.210820e+000  1.696689e+000  7.500000e+000
    endloop
  endfacet
  facet normal  9.079229e-001 -4.191373e-001  0.000000e+000
    outer loop
      vertex -4.671595e+000  2.864743e+000  7.050000e+000
      vertex -5.210820e+000  1.696689e+000  7.500000e+000
      vertex -5.210820e+000  1.696689e+000  7.050000e+000
    endloop
  endfacet
  facet normal  9.806480e-001 -1.957794e-001  0.000000e+000
    outer loop
      vertex -5.210820e+000  1.696689e+000  7.050000e+000
      vertex -5.210820e+000  1.696689e+000  7.500000e+000
      vertex -5.462708e+000  4.350000e-001  7.500000e+000
    endloop
  endfacet
  facet normal  9.806480e-001 -1.957794e-001  0.000000e+000
    outer loop
      vertex -5.210820e+000  1.696689e+000  7.050000e+000
      vertex -5.462708e+000  4.350000e-001  7.500000e+000
      vertex -5.462708e+000  4.350000e-001  7.050000e+000
    endloop
  endfacet
  facet normal  0.000000e+000 -1.000000e+000  0.000000e+000
    outer loop
      vertex -6.335083e+000  4.350000e-001  7.050000e+000
      vertex -5.462708e+000  4.350000e-001  7.050000e+000
      vertex -6.335083e+000  4.350000e-001  7.500000e+000
    endloop
  endfacet
  facet normal  0.000000e+000 -1.000000e+000  0.000000e+000
    outer loop
      vertex -6.335083e+000  4.350000e-001  7.500000e+000
      vertex -5.462708e+000  4.350000e-001  7.050000e+000
      vertex -5.462708e+000  4.350000e-001  7.500000e+000
    endloop
  endfacet
  facet normal -7.862953e-001  6.178509e-001  0.000000e+000
    outer loop
      vertex -4.490053e+000  4.490053e+000  7.500000e+000
      vertex -5.425285e+000  3.299848e+000  7.050000e+000
      vertex -5.425285e+000  3.299848e+000  7.500000e+000
    endloop
  endfacet
  facet normal -9.101926e-001  4.141853e-001  0.000000e+000
    outer loop
      vertex -5.425285e+000  3.299848e+000  7.500000e+000
      vertex -5.425285e+000  3.299848e+000  7.050000e+000
      vertex -6.052227e+000  1.922112e+000  7.050000e+000
    endloop
  endfacet
  facet normal -9.101926e-001  4.141853e-001  0.000000e+000
    outer loop
      vertex -5.425285e+000  3.299848e+000  7.500000e+000
      vertex -6.052227e+000  1.922112e+000  7.050000e+000
      vertex -6.052227e+000  1.922112e+000  7.500000e+000
    endloop
  endfacet
  facet normal -9.823875e-001  1.868547e-001  0.000000e+000
    outer loop
      vertex -6.052227e+000  1.922112e+000  7.500000e+000
      vertex -6.052227e+000  1.922112e+000  7.050000e+000
      vertex -6.335083e+000  4.350000e-001  7.050000e+000
    endloop
  endfacet
  facet normal -9.823875e-001  1.868547e-001  0.000000e+000
    outer loop
      vertex -6.052227e+000  1.922112e+000  7.500000e+000
      vertex -6.335083e+000  4.350000e-001  7.050000e+000
      vertex -6.335083e+000  4.350000e-001  7.500000e+000
    endloop
  endfacet
  facet normal -7.862953e-001  6.178509e-001  0.000000e+000
    outer loop
      vertex -5.425285e+000  3.299848e+000  7.050000e+000
      vertex -4.490053e+000  4.490053e+000  7.500000e+000
      vertex -4.490053e+000  4.490053e+000  7.050000e+000
    endloop
  endfacet
  facet normal -6.178509e-001  7.862953e-001  0.000000e+000
    outer loop
      vertex -4.490053e+000  4.490053e+000  7.050000e+000
      vertex -4.490053e+000  4.490053e+000  7.500000e+000
      vertex -3.299848e+000  5.425285e+000  7.500000e+000
    endloop
  endfacet
  facet normal -6.178509e-001  7.862953e-001  0.000000e+000
    outer loop
      vertex -4.490053e+000  4.490053e+000  7.050000e+000
      vertex -3.299848e+000  5.425285e+000  7.500000e+000
      vertex -3.299848e+000  5.425285e+000  7.050000e+000
    endloop
  endfacet
  facet normal -4.141853e-001  9.101926e-001  0.000000e+000
    outer loop
      vertex -3.299848e+000  5.425285e+000  7.050000e+000
      vertex -3.299848e+000  5.425285e+000  7.500000e+000
      vertex -1.922112e+000  6.052227e+000  7.500000e+000
    endloop
  endfacet
  facet normal -4.141853e-001  9.101926e-001  0.000000e+000
    outer loop
      vertex -3.299848e+000  5.425285e+000  7.050000e+000
      vertex -1.922112e+000  6.052227e+000  7.500000e+000
      vertex -1.922112e+000  6.052227e+000  7.050000e+000
    endloop
  endfacet
  facet normal -1.868547e-001  9.823875e-001  0.000000e+000
    outer loop
      vertex -1.922112e+000  6.052227e+000  7.050000e+000
      vertex -1.922112e+000  6.052227e+000  7.500000e+000
      vertex -4.350000e-001  6.335083e+000  7.500000e+000
    endloop
  endfacet
  facet normal -1.868547e-001  9.823875e-001  0.000000e+000
    outer loop
      vertex -1.922112e+000  6.052227e+000  7.050000e+000
      vertex -4.350000e-001  6.335083e+000  7.500000e+000
      vertex -4.350000e-001  6.335083e+000  7.050000e+000
    endloop
  endfacet
  facet normal  1.000000e+000  0.000000e+000  0.000000e+000
    outer loop
      vertex -4.350000e-001  5.462708e+000  7.050000e+000
      vertex -4.350000e-001  6.335083e+000  7.050000e+000
      vertex -4.350000e-001  5.462708e+000  7.500000e+000
    endloop
  endfacet
  facet normal  1.000000e+000  -0.000000e+000  0.000000e+000
    outer loop
      vertex -4.350000e-001  5.462708e+000  7.500000e+000
      vertex -4.350000e-001  6.335083e+000  7.050000e+000
      vertex -4.350000e-001  6.335083e+000  7.500000e+000
    endloop
  endfacet
  facet normal  0.000000e+000  0.000000e+000 -1.000000e+000
    outer loop
      vertex  1.696689e+000  5.210820e+000  7.050000e+000
      vertex  4.350000e-001  5.462708e+000  7.050000e+000
      vertex  3.299848e+000  5.425285e+000  7.050000e+000
    endloop
  endfacet
  facet normal  0.000000e+000  0.000000e+000 -1.000000e+000
    outer loop
      vertex  3.299848e+000  5.425285e+000  7.050000e+000
      vertex  4.350000e-001  5.462708e+000  7.050000e+000
      vertex  4.350000e-001  6.335083e+000  7.050000e+000
    endloop
  endfacet
  facet normal  0.000000e+000  0.000000e+000 -1.000000e+000
    outer loop
      vertex  3.299848e+000  5.425285e+000  7.050000e+000
      vertex  4.350000e-001  6.335083e+000  7.050000e+000
      vertex  1.922112e+000  6.052227e+000  7.050000e+000
    endloop
  endfacet
  facet normal  0.000000e+000  0.000000e+000 -1.000000e+000
    outer loop
      vertex  4.671595e+000  2.864743e+000  7.050000e+000
      vertex  3.874886e+000  3.874886e+000  7.050000e+000
      vertex  5.425285e+000  3.299848e+000  7.050000e+000
    endloop
  endfacet
  facet normal  0.000000e+000  0.000000e+000 -1.000000e+000
    outer loop
      vertex  5.425285e+000  3.299848e+000  7.050000e+000
      vertex  3.874886e+000  3.874886e+000  7.050000e+000
      vertex  2.864743e+000  4.671595e+000  7.050000e+000
    endloop
  endfacet
  facet normal  0.000000e+000  0.000000e+000 -9.999999e-001
    outer loop
      vertex  5.425285e+000  3.299848e+000  7.050000e+000
      vertex  2.864743e+000  4.671595e+000  7.050000e+000
      vertex  4.490053e+000  4.490053e+000  7.050000e+000
    endloop
  endfacet
  facet normal  0.000000e+000  0.000000e+000 -1.000000e+000
    outer loop
      vertex  4.490053e+000  4.490053e+000  7.050000e+000
      vertex  2.864743e+000  4.671595e+000  7.050000e+000
      vertex  1.696689e+000  5.210820e+000  7.050000e+000
    endloop
  endfacet
  facet normal  0.000000e+000  0.000000e+000 -1.000000e+000
    outer loop
      vertex  4.490053e+000  4.490053e+000  7.050000e+000
      vertex  1.696689e+000  5.210820e+000  7.050000e+000
      vertex  3.299848e+000  5.425285e+000  7.050000e+000
    endloop
  endfacet
  facet normal  0.000000e+000  0.000000e+000 -1.000000e+000
    outer loop
      vertex  5.425285e+000  3.299848e+000  7.050000e+000
      vertex  6.052227e+000  1.922112e+000  7.050000e+000
      vertex  4.671595e+000  2.864743e+000  7.050000e+000
    endloop
  endfacet
  facet normal  0.000000e+000  0.000000e+000 -1.000000e+000
    outer loop
      vertex  4.671595e+000  2.864743e+000  7.050000e+000
      vertex  6.052227e+000  1.922112e+000  7.050000e+000
      vertex  5.210820e+000  1.696689e+000  7.050000e+000
    endloop
  endfacet
  facet normal  0.000000e+000  0.000000e+000 -1.000000e+000
    outer loop
      vertex  6.052227e+000  1.922112e+000  7.050000e+000
      vertex  6.335083e+000  4.350000e-001  7.050000e+000
      vertex  5.210820e+000  1.696689e+000  7.050000e+000
    endloop
  endfacet
  facet normal  0.000000e+000  0.000000e+000 -1.000000e+000
    outer loop
      vertex  5.210820e+000  1.696689e+000  7.050000e+000
      vertex  6.335083e+000  4.350000e-001  7.050000e+000
      vertex  5.462708e+000  4.350000e-001  7.050000e+000
    endloop
  endfacet
  facet normal  0.000000e+000  0.000000e+000  1.000000e+000
    outer loop
      vertex  1.922112e+000  6.052227e+000  7.500000e+000
      vertex  4.350000e-001  6.335083e+000  7.500000e+000
      vertex  3.299848e+000  5.425285e+000  7.500000e+000
    endloop
  endfacet
  facet normal  0.000000e+000  0.000000e+000  1.000000e+000
    outer loop
      vertex  3.299848e+000  5.425285e+000  7.500000e+000
      vertex  4.350000e-001  6.335083e+000  7.500000e+000
      vertex  4.350000e-001  5.462708e+000  7.500000e+000
    endloop
  endfacet
  facet normal  0.000000e+000  0.000000e+000  1.000000e+000
    outer loop
      vertex  3.299848e+000  5.425285e+000  7.500000e+000
      vertex  4.350000e-001  5.462708e+000  7.500000e+000
      vertex  1.696689e+000  5.210820e+000  7.500000e+000
    endloop
  endfacet
  facet normal  -0.000000e+000  0.000000e+000  1.000000e+000
    outer loop
      vertex  3.299848e+000  5.425285e+000  7.500000e+000
      vertex  1.696689e+000  5.210820e+000  7.500000e+000
      vertex  4.490053e+000  4.490053e+000  7.500000e+000
    endloop
  endfacet
  facet normal  0.000000e+000  0.000000e+000  1.000000e+000
    outer loop
      vertex  4.490053e+000  4.490053e+000  7.500000e+000
      vertex  1.696689e+000  5.210820e+000  7.500000e+000
      vertex  2.864743e+000  4.671595e+000  7.500000e+000
    endloop
  endfacet
  facet normal  0.000000e+000  0.000000e+000  9.999999e-001
    outer loop
      vertex  4.490053e+000  4.490053e+000  7.500000e+000
      vertex  2.864743e+000  4.671595e+000  7.500000e+000
      vertex  5.425285e+000  3.299848e+000  7.500000e+000
    endloop
  endfacet
  facet normal  0.000000e+000  0.000000e+000  1.000000e+000
    outer loop
      vertex  5.425285e+000  3.299848e+000  7.500000e+000
      vertex  2.864743e+000  4.671595e+000  7.500000e+000
      vertex  3.874886e+000  3.874886e+000  7.500000e+000
    endloop
  endfacet
  facet normal  0.000000e+000  0.000000e+000  1.000000e+000
    outer loop
      vertex  5.425285e+000  3.299848e+000  7.500000e+000
      vertex  3.874886e+000  3.874886e+000  7.500000e+000
      vertex  4.671595e+000  2.864743e+000  7.500000e+000
    endloop
  endfacet
  facet normal  -0.000000e+000  0.000000e+000  1.000000e+000
    outer loop
      vertex  5.425285e+000  3.299848e+000  7.500000e+000
      vertex  4.671595e+000  2.864743e+000  7.500000e+000
      vertex  6.052227e+000  1.922112e+000  7.500000e+000
    endloop
  endfacet
  facet normal  0.000000e+000  0.000000e+000  1.000000e+000
    outer loop
      vertex  6.052227e+000  1.922112e+000  7.500000e+000
      vertex  4.671595e+000  2.864743e+000  7.500000e+000
      vertex  5.210820e+000  1.696689e+000  7.500000e+000
    endloop
  endfacet
  facet normal  -0.000000e+000  0.000000e+000  1.000000e+000
    outer loop
      vertex  6.052227e+000  1.922112e+000  7.500000e+000
      vertex  5.210820e+000  1.696689e+000  7.500000e+000
      vertex  6.335083e+000  4.350000e-001  7.500000e+000
    endloop
  endfacet
  facet normal  0.000000e+000  0.000000e+000  1.000000e+000
    outer loop
      vertex  6.335083e+000  4.350000e-001  7.500000e+000
      vertex  5.210820e+000  1.696689e+000  7.500000e+000
      vertex  5.462708e+000  4.350000e-001  7.500000e+000
    endloop
  endfacet
  facet normal -7.851746e-001 -6.192746e-001  0.000000e+000
    outer loop
      vertex  3.874886e+000  3.874886e+000  7.500000e+000
      vertex  4.671595e+000  2.864743e+000  7.050000e+000
      vertex  4.671595e+000  2.864743e+000  7.500000e+000
    endloop
  endfacet
  facet normal -9.079229e-001 -4.191373e-001  -0.000000e+000
    outer loop
      vertex  4.671595e+000  2.864743e+000  7.500000e+000
      vertex  4.671595e+000  2.864743e+000  7.050000e+000
      vertex  5.210820e+000  1.696689e+000  7.050000e+000
    endloop
  endfacet
  facet normal -9.079229e-001 -4.191373e-001  0.000000e+000
    outer loop
      vertex  4.671595e+000  2.864743e+000  7.500000e+000
      vertex  5.210820e+000  1.696689e+000  7.050000e+000
      vertex  5.210820e+000  1.696689e+000  7.500000e+000
    endloop
  endfacet
  facet normal -9.806480e-001 -1.957794e-001  -0.000000e+000
    outer loop
      vertex  5.210820e+000  1.696689e+000  7.500000e+000
      vertex  5.210820e+000  1.696689e+000  7.050000e+000
      vertex  5.462708e+000  4.350000e-001  7.050000e+000
    endloop
  endfacet
  facet normal -9.806480e-001 -1.957794e-001  0.000000e+000
    outer loop
      vertex  5.210820e+000  1.696689e+000  7.500000e+000
      vertex  5.462708e+000  4.350000e-001  7.050000e+000
      vertex  5.462708e+000  4.350000e-001  7.500000e+000
    endloop
  endfacet
  facet normal -7.851746e-001 -6.192746e-001  -0.000000e+000
    outer loop
      vertex  4.671595e+000  2.864743e+000  7.050000e+000
      vertex  3.874886e+000  3.874886e+000  7.500000e+000
      vertex  3.874886e+000  3.874886e+000  7.050000e+000
    endloop
  endfacet
  facet normal -6.192746e-001 -7.851746e-001  0.000000e+000
    outer loop
      vertex  3.874886e+000  3.874886e+000  7.050000e+000
      vertex  3.874886e+000  3.874886e+000  7.500000e+000
      vertex  2.864743e+000  4.671595e+000  7.500000e+000
    endloop
  endfacet
  facet normal -6.192746e-001 -7.851746e-001  -0.000000e+000
    outer loop
      vertex  3.874886e+000  3.874886e+000  7.050000e+000
      vertex  2.864743e+000  4.671595e+000  7.500000e+000
      vertex  2.864743e+000  4.671595e+000  7.050000e+000
    endloop
  endfacet
  facet normal -4.191373e-001 -9.079229e-001  0.000000e+000
    outer loop
      vertex  2.864743e+000  4.671595e+000  7.050000e+000
      vertex  2.864743e+000  4.671595e+000  7.500000e+000
      vertex  1.696689e+000  5.210820e+000  7.500000e+000
    endloop
  endfacet
  facet normal -4.191373e-001 -9.079229e-001  -0.000000e+000
    outer loop
      vertex  2.864743e+000  4.671595e+000  7.050000e+000
      vertex  1.696689e+000  5.210820e+000  7.500000e+000
      vertex  1.696689e+000  5.210820e+000  7.050000e+000
    endloop
  endfacet
  facet normal -1.957794e-001 -9.806480e-001  0.000000e+000
    outer loop
      vertex  1.696689e+000  5.210820e+000  7.050000e+000
      vertex  1.696689e+000  5.210820e+000  7.500000e+000
      vertex  4.350000e-001  5.462708e+000  7.500000e+000
    endloop
  endfacet
  facet normal -1.957794e-001 -9.806480e-001  -0.000000e+000
    outer loop
      vertex  1.696689e+000  5.210820e+000  7.050000e+000
      vertex  4.350000e-001  5.462708e+000  7.500000e+000
      vertex  4.350000e-001  5.462708e+000  7.050000e+000
    endloop
  endfacet
  facet normal -1.000000e+000  0.000000e+000  0.000000e+000
    outer loop
      vertex  4.350000e-001  6.335083e+000  7.050000e+000
      vertex  4.350000e-001  5.462708e+000  7.050000e+000
      vertex  4.350000e-001  6.335083e+000  7.500000e+000
    endloop
  endfacet
  facet normal -1.000000e+000  -0.000000e+000  0.000000e+000
    outer loop
      vertex  4.350000e-001  6.335083e+000  7.500000e+000
      vertex  4.350000e-001  5.462708e+000  7.050000e+000
      vertex  4.350000e-001  5.462708e+000  7.500000e+000
    endloop
  endfacet
  facet normal  6.178509e-001  7.862953e-001  -0.000000e+000
    outer loop
      vertex  4.490053e+000  4.490053e+000  7.500000e+000
      vertex  3.299848e+000  5.425285e+000  7.050000e+000
      vertex  3.299848e+000  5.425285e+000  7.500000e+000
    endloop
  endfacet
  facet normal  4.141853e-001  9.101926e-001  0.000000e+000
    outer loop
      vertex  3.299848e+000  5.425285e+000  7.500000e+000
      vertex  3.299848e+000  5.425285e+000  7.050000e+000
      vertex  1.922112e+000  6.052227e+000  7.050000e+000
    endloop
  endfacet
  facet normal  4.141853e-001  9.101926e-001  -0.000000e+000
    outer loop
      vertex  3.299848e+000  5.425285e+000  7.500000e+000
      vertex  1.922112e+000  6.052227e+000  7.050000e+000
      vertex  1.922112e+000  6.052227e+000  7.500000e+000
    endloop
  endfacet
  facet normal  1.868547e-001  9.823875e-001  0.000000e+000
    outer loop
      vertex  1.922112e+000  6.052227e+000  7.500000e+000
      vertex  1.922112e+000  6.052227e+000  7.050000e+000
      vertex  4.350000e-001  6.335083e+000  7.050000e+000
    endloop
  endfacet
  facet normal  1.868547e-001  9.823875e-001  -0.000000e+000
    outer loop
      vertex  1.922112e+000  6.052227e+000  7.500000e+000
      vertex  4.350000e-001  6.335083e+000  7.050000e+000
      vertex  4.350000e-001  6.335083e+000  7.500000e+000
    endloop
  endfacet
  facet normal  6.178509e-001  7.862953e-001  0.000000e+000
    outer loop
      vertex  3.299848e+000  5.425285e+000  7.050000e+000
      vertex  4.490053e+000  4.490053e+000  7.500000e+000
      vertex  4.490053e+000  4.490053e+000  7.050000e+000
    endloop
  endfacet
  facet normal  7.862953e-001  6.178509e-001  -0.000000e+000
    outer loop
      vertex  4.490053e+000  4.490053e+000  7.050000e+000
      vertex  4.490053e+000  4.490053e+000  7.500000e+000
      vertex  5.425285e+000  3.299848e+000  7.500000e+000
    endloop
  endfacet
  facet normal  7.862953e-001  6.178509e-001  0.000000e+000
    outer loop
      vertex  4.490053e+000  4.490053e+000  7.050000e+000
      vertex  5.425285e+000  3.299848e+000  7.500000e+000
      vertex  5.425285e+000  3.299848e+000  7.050000e+000
    endloop
  endfacet
  facet normal  9.101926e-001  4.141853e-001  -0.000000e+000
    outer loop
      vertex  5.425285e+000  3.299848e+000  7.050000e+000
      vertex  5.425285e+000  3.299848e+000  7.500000e+000
      vertex  6.052227e+000  1.922112e+000  7.500000e+000
    endloop
  endfacet
  facet normal  9.101926e-001  4.141853e-001  0.000000e+000
    outer loop
      vertex  5.425285e+000  3.299848e+000  7.050000e+000
      vertex  6.052227e+000  1.922112e+000  7.500000e+000
      vertex  6.052227e+000  1.922112e+000  7.050000e+000
    endloop
  endfacet
  facet normal  9.823875e-001  1.868547e-001  -0.000000e+000
    outer loop
      vertex  6.052227e+000  1.922112e+000  7.050000e+000
      vertex  6.052227e+000  1.922112e+000  7.500000e+000
      vertex  6.335083e+000  4.350000e-001  7.500000e+000
    endloop
  endfacet
  facet normal  9.823875e-001  1.868547e-001  0.000000e+000
    outer loop
      vertex  6.052227e+000  1.922112e+000  7.050000e+000
      vertex  6.335083e+000  4.350000e-001  7.500000e+000
      vertex  6.335083e+000  4.350000e-001  7.050000e+000
    endloop
  endfacet
  facet normal  0.000000e+000 -1.000000e+000  0.000000e+000
    outer loop
      vertex  5.462708e+000  4.350000e-001  7.050000e+000
      vertex  6.335083e+000  4.350000e-001  7.050000e+000
      vertex  5.462708e+000  4.350000e-001  7.500000e+000
    endloop
  endfacet
  facet normal  0.000000e+000 -1.000000e+000  0.000000e+000
    outer loop
      vertex  5.462708e+000  4.350000e-001  7.500000e+000
      vertex  6.335083e+000  4.350000e-001  7.050000e+000
      vertex  6.335083e+000  4.350000e-001  7.500000e+000
    endloop
  endfacet
  facet normal  0.000000e+000  0.000000e+000 -1.000000e+000
    outer loop
      vertex -2.864743e+000 -4.671595e+000  7.050000e+000
      vertex -4.490053e+000 -4.490053e+000  7.050000e+000
      vertex -3.874886e+000 -3.874886e+000  7.050000e+000
    endloop
  endfacet
  facet normal  -0.000000e+000  0.000000e+000 -1.000000e+000
    outer loop
      vertex -3.874886e+000 -3.874886e+000  7.050000e+000
      vertex -4.490053e+000 -4.490053e+000  7.050000e+000
      vertex -5.425285e+000 -3.299848e+000  7.050000e+000
    endloop
  endfacet
  facet normal  0.000000e+000  0.000000e+000 -1.000000e+000
    outer loop
      vertex -3.874886e+000 -3.874886e+000  7.050000e+000
      vertex -5.425285e+000 -3.299848e+000  7.050000e+000
      vertex -4.671595e+000 -2.864743e+000  7.050000e+000
    endloop
  endfacet
  facet normal  -0.000000e+000  0.000000e+000 -1.000000e+000
    outer loop
      vertex -4.671595e+000 -2.864743e+000  7.050000e+000
      vertex -5.425285e+000 -3.299848e+000  7.050000e+000
      vertex -6.052227e+000 -1.922112e+000  7.050000e+000
    endloop
  endfacet
  facet normal  0.000000e+000  0.000000e+000 -1.000000e+000
    outer loop
      vertex -4.671595e+000 -2.864743e+000  7.050000e+000
      vertex -6.052227e+000 -1.922112e+000  7.050000e+000
      vertex -5.210820e+000 -1.696689e+000  7.050000e+000
    endloop
  endfacet
  facet normal  -0.000000e+000  0.000000e+000 -1.000000e+000
    outer loop
      vertex -5.210820e+000 -1.696689e+000  7.050000e+000
      vertex -6.052227e+000 -1.922112e+000  7.050000e+000
      vertex -6.335083e+000 -4.350000e-001  7.050000e+000
    endloop
  endfacet
  facet normal  0.000000e+000  0.000000e+000 -1.000000e+000
    outer loop
      vertex -5.210820e+000 -1.696689e+000  7.050000e+000
      vertex -6.335083e+000 -4.350000e-001  7.050000e+000
      vertex -5.462708e+000 -4.350000e-001  7.050000e+000
    endloop
  endfacet
  facet normal  0.000000e+000  0.000000e+000 -1.000000e+000
    outer loop
      vertex -4.350000e-001 -5.462708e+000  7.050000e+000
      vertex -3.299848e+000 -5.425285e+000  7.050000e+000
      vertex -1.696689e+000 -5.210820e+000  7.050000e+000
    endloop
  endfacet
  facet normal  -0.000000e+000  0.000000e+000 -1.000000e+000
    outer loop
      vertex -1.696689e+000 -5.210820e+000  7.050000e+000
      vertex -3.299848e+000 -5.425285e+000  7.050000e+000
      vertex -4.490053e+000 -4.490053e+000  7.050000e+000
    endloop
  endfacet
  facet normal  0.000000e+000  0.000000e+000 -1.000000e+000
    outer loop
      vertex -1.696689e+000 -5.210820e+000  7.050000e+000
      vertex -4.490053e+000 -4.490053e+000  7.050000e+000
      vertex -2.864743e+000 -4.671595e+000  7.050000e+000
    endloop
  endfacet
  facet normal  0.000000e+000  0.000000e+000 -9.999999e-001
    outer loop
      vertex -1.922112e+000 -6.052227e+000  7.050000e+000
      vertex -3.299848e+000 -5.425285e+000  7.050000e+000
      vertex -4.350000e-001 -6.335083e+000  7.050000e+000
    endloop
  endfacet
  facet normal  0.000000e+000  0.000000e+000 -1.000000e+000
    outer loop
      vertex -4.350000e-001 -6.335083e+000  7.050000e+000
      vertex -3.299848e+000 -5.425285e+000  7.050000e+000
      vertex -4.350000e-001 -5.462708e+000  7.050000e+000
    endloop
  endfacet
  facet normal  -0.000000e+000  0.000000e+000  1.000000e+000
    outer loop
      vertex -5.462708e+000 -4.350000e-001  7.500000e+000
      vertex -6.335083e+000 -4.350000e-001  7.500000e+000
      vertex -5.210820e+000 -1.696689e+000  7.500000e+000
    endloop
  endfacet
  facet normal  0.000000e+000  0.000000e+000  1.000000e+000
    outer loop
      vertex -5.210820e+000 -1.696689e+000  7.500000e+000
      vertex -6.335083e+000 -4.350000e-001  7.500000e+000
      vertex -6.052227e+000 -1.922112e+000  7.500000e+000
    endloop
  endfacet
  facet normal  -0.000000e+000  0.000000e+000  1.000000e+000
    outer loop
      vertex -5.210820e+000 -1.696689e+000  7.500000e+000
      vertex -6.052227e+000 -1.922112e+000  7.500000e+000
      vertex -4.671595e+000 -2.864743e+000  7.500000e+000
    endloop
  endfacet
  facet normal  0.000000e+000  0.000000e+000  1.000000e+000
    outer loop
      vertex -4.671595e+000 -2.864743e+000  7.500000e+000
      vertex -6.052227e+000 -1.922112e+000  7.500000e+000
      vertex -5.425285e+000 -3.299848e+000  7.500000e+000
    endloop
  endfacet
  facet normal  -0.000000e+000  0.000000e+000  1.000000e+000
    outer loop
      vertex -4.671595e+000 -2.864743e+000  7.500000e+000
      vertex -5.425285e+000 -3.299848e+000  7.500000e+000
      vertex -3.874886e+000 -3.874886e+000  7.500000e+000
    endloop
  endfacet
  facet normal  0.000000e+000  0.000000e+000  1.000000e+000
    outer loop
      vertex -3.874886e+000 -3.874886e+000  7.500000e+000
      vertex -5.425285e+000 -3.299848e+000  7.500000e+000
      vertex -4.490053e+000 -4.490053e+000  7.500000e+000
    endloop
  endfacet
  facet normal  -0.000000e+000  0.000000e+000  1.000000e+000
    outer loop
      vertex -3.874886e+000 -3.874886e+000  7.500000e+000
      vertex -4.490053e+000 -4.490053e+000  7.500000e+000
      vertex -2.864743e+000 -4.671595e+000  7.500000e+000
    endloop
  endfacet
  facet normal  0.000000e+000  0.000000e+000  1.000000e+000
    outer loop
      vertex -2.864743e+000 -4.671595e+000  7.500000e+000
      vertex -4.490053e+000 -4.490053e+000  7.500000e+000
      vertex -1.696689e+000 -5.210820e+000  7.500000e+000
    endloop
  endfacet
  facet normal  0.000000e+000  0.000000e+000  1.000000e+000
    outer loop
      vertex -1.696689e+000 -5.210820e+000  7.500000e+000
      vertex -4.490053e+000 -4.490053e+000  7.500000e+000
      vertex -3.299848e+000 -5.425285e+000  7.500000e+000
    endloop
  endfacet
  facet normal  -0.000000e+000  0.000000e+000  1.000000e+000
    outer loop
      vertex -1.696689e+000 -5.210820e+000  7.500000e+000
      vertex -3.299848e+000 -5.425285e+000  7.500000e+000
      vertex -4.350000e-001 -5.462708e+000  7.500000e+000
    endloop
  endfacet
  facet normal  0.000000e+000  0.000000e+000  1.000000e+000
    outer loop
      vertex -1.922112e+000 -6.052227e+000  7.500000e+000
      vertex -4.350000e-001 -6.335083e+000  7.500000e+000
      vertex -3.299848e+000 -5.425285e+000  7.500000e+000
    endloop
  endfacet
  facet normal  0.000000e+000  0.000000e+000  1.000000e+000
    outer loop
      vertex -3.299848e+000 -5.425285e+000  7.500000e+000
      vertex -4.350000e-001 -6.335083e+000  7.500000e+000
      vertex -4.350000e-001 -5.462708e+000  7.500000e+000
    endloop
  endfacet
  facet normal  1.000000e+000  0.000000e+000  0.000000e+000
    outer loop
      vertex -4.350000e-001 -6.335083e+000  7.050000e+000
      vertex -4.350000e-001 -5.462708e+000  7.050000e+000
      vertex -4.350000e-001 -6.335083e+000  7.500000e+000
    endloop
  endfacet
  facet normal  1.000000e+000  -0.000000e+000  0.000000e+000
    outer loop
      vertex -4.350000e-001 -6.335083e+000  7.500000e+000
      vertex -4.350000e-001 -5.462708e+000  7.050000e+000
      vertex -4.350000e-001 -5.462708e+000  7.500000e+000
    endloop
  endfacet
  facet normal -6.178509e-001 -7.862953e-001  0.000000e+000
    outer loop
      vertex -4.490053e+000 -4.490053e+000  7.500000e+000
      vertex -3.299848e+000 -5.425285e+000  7.050000e+000
      vertex -3.299848e+000 -5.425285e+000  7.500000e+000
    endloop
  endfacet
  facet normal -4.141853e-001 -9.101926e-001  -0.000000e+000
    outer loop
      vertex -3.299848e+000 -5.425285e+000  7.500000e+000
      vertex -3.299848e+000 -5.425285e+000  7.050000e+000
      vertex -1.922112e+000 -6.052227e+000  7.050000e+000
    endloop
  endfacet
  facet normal -4.141853e-001 -9.101926e-001  0.000000e+000
    outer loop
      vertex -3.299848e+000 -5.425285e+000  7.500000e+000
      vertex -1.922112e+000 -6.052227e+000  7.050000e+000
      vertex -1.922112e+000 -6.052227e+000  7.500000e+000
    endloop
  endfacet
  facet normal -1.868547e-001 -9.823875e-001  -0.000000e+000
    outer loop
      vertex -1.922112e+000 -6.052227e+000  7.500000e+000
      vertex -1.922112e+000 -6.052227e+000  7.050000e+000
      vertex -4.350000e-001 -6.335083e+000  7.050000e+000
    endloop
  endfacet
  facet normal -1.868547e-001 -9.823875e-001  0.000000e+000
    outer loop
      vertex -1.922112e+000 -6.052227e+000  7.500000e+000
      vertex -4.350000e-001 -6.335083e+000  7.050000e+000
      vertex -4.350000e-001 -6.335083e+000  7.500000e+000
    endloop
  endfacet
  facet normal -6.178509e-001 -7.862953e-001  -0.000000e+000
    outer loop
      vertex -3.299848e+000 -5.425285e+000  7.050000e+000
      vertex -4.490053e+000 -4.490053e+000  7.500000e+000
      vertex -4.490053e+000 -4.490053e+000  7.050000e+000
    endloop
  endfacet
  facet normal -7.862953e-001 -6.178509e-001  0.000000e+000
    outer loop
      vertex -4.490053e+000 -4.490053e+000  7.050000e+000
      vertex -4.490053e+000 -4.490053e+000  7.500000e+000
      vertex -5.425285e+000 -3.299848e+000  7.500000e+000
    endloop
  endfacet
  facet normal -7.862953e-001 -6.178509e-001  -0.000000e+000
    outer loop
      vertex -4.490053e+000 -4.490053e+000  7.050000e+000
      vertex -5.425285e+000 -3.299848e+000  7.500000e+000
      vertex -5.425285e+000 -3.299848e+000  7.050000e+000
    endloop
  endfacet
  facet normal -9.101926e-001 -4.141853e-001  0.000000e+000
    outer loop
      vertex -5.425285e+000 -3.299848e+000  7.050000e+000
      vertex -5.425285e+000 -3.299848e+000  7.500000e+000
      vertex -6.052227e+000 -1.922112e+000  7.500000e+000
    endloop
  endfacet
  facet normal -9.101926e-001 -4.141853e-001  -0.000000e+000
    outer loop
      vertex -5.425285e+000 -3.299848e+000  7.050000e+000
      vertex -6.052227e+000 -1.922112e+000  7.500000e+000
      vertex -6.052227e+000 -1.922112e+000  7.050000e+000
    endloop
  endfacet
  facet normal -9.823875e-001 -1.868547e-001  0.000000e+000
    outer loop
      vertex -6.052227e+000 -1.922112e+000  7.050000e+000
      vertex -6.052227e+000 -1.922112e+000  7.500000e+000
      vertex -6.335083e+000 -4.350000e-001  7.500000e+000
    endloop
  endfacet
  facet normal -9.823875e-001 -1.868547e-001  -0.000000e+000
    outer loop
      vertex -6.052227e+000 -1.922112e+000  7.050000e+000
      vertex -6.335083e+000 -4.350000e-001  7.500000e+000
      vertex -6.335083e+000 -4.350000e-001  7.050000e+000
    endloop
  endfacet
  facet normal  0.000000e+000  1.000000e+000  0.000000e+000
    outer loop
      vertex -5.462708e+000 -4.350000e-001  7.050000e+000
      vertex -6.335083e+000 -4.350000e-001  7.050000e+000
      vertex -5.462708e+000 -4.350000e-001  7.500000e+000
    endloop
  endfacet
  facet normal  0.000000e+000  1.000000e+000  0.000000e+000
    outer loop
      vertex -5.462708e+000 -4.350000e-001  7.500000e+000
      vertex -6.335083e+000 -4.350000e-001  7.050000e+000
      vertex -6.335083e+000 -4.350000e-001  7.500000e+000
    endloop
  endfacet
  facet normal  7.851746e-001  6.192746e-001  -0.000000e+000
    outer loop
      vertex -3.874886e+000 -3.874886e+000  7.500000e+000
      vertex -4.671595e+000 -2.864743e+000  7.050000e+000
      vertex -4.671595e+000 -2.864743e+000  7.500000e+000
    endloop
  endfacet
  facet normal  9.079229e-001  4.191373e-001  0.000000e+000
    outer loop
      vertex -4.671595e+000 -2.864743e+000  7.500000e+000
      vertex -4.671595e+000 -2.864743e+000  7.050000e+000
      vertex -5.210820e+000 -1.696689e+000  7.050000e+000
    endloop
  endfacet
  facet normal  9.079229e-001  4.191373e-001  -0.000000e+000
    outer loop
      vertex -4.671595e+000 -2.864743e+000  7.500000e+000
      vertex -5.210820e+000 -1.696689e+000  7.050000e+000
      vertex -5.210820e+000 -1.696689e+000  7.500000e+000
    endloop
  endfacet
  facet normal  9.806480e-001  1.957794e-001  0.000000e+000
    outer loop
      vertex -5.210820e+000 -1.696689e+000  7.500000e+000
      vertex -5.210820e+000 -1.696689e+000  7.050000e+000
      vertex -5.462708e+000 -4.350000e-001  7.050000e+000
    endloop
  endfacet
  facet normal  9.806480e-001  1.957794e-001  -0.000000e+000
    outer loop
      vertex -5.210820e+000 -1.696689e+000  7.500000e+000
      vertex -5.462708e+000 -4.350000e-001  7.050000e+000
      vertex -5.462708e+000 -4.350000e-001  7.500000e+000
    endloop
  endfacet
  facet normal  7.851746e-001  6.192746e-001  0.000000e+000
    outer loop
      vertex -4.671595e+000 -2.864743e+000  7.050000e+000
      vertex -3.874886e+000 -3.874886e+000  7.500000e+000
      vertex -3.874886e+000 -3.874886e+000  7.050000e+000
    endloop
  endfacet
  facet normal  6.192746e-001  7.851746e-001  -0.000000e+000
    outer loop
      vertex -3.874886e+000 -3.874886e+000  7.050000e+000
      vertex -3.874886e+000 -3.874886e+000  7.500000e+000
      vertex -2.864743e+000 -4.671595e+000  7.500000e+000
    endloop
  endfacet
  facet normal  6.192746e-001  7.851746e-001  0.000000e+000
    outer loop
      vertex -3.874886e+000 -3.874886e+000  7.050000e+000
      vertex -2.864743e+000 -4.671595e+000  7.500000e+000
      vertex -2.864743e+000 -4.671595e+000  7.050000e+000
    endloop
  endfacet
  facet normal  4.191373e-001  9.079229e-001  -0.000000e+000
    outer loop
      vertex -2.864743e+000 -4.671595e+000  7.050000e+000
      vertex -2.864743e+000 -4.671595e+000  7.500000e+000
      vertex -1.696689e+000 -5.210820e+000  7.500000e+000
    endloop
  endfacet
  facet normal  4.191373e-001  9.079229e-001  0.000000e+000
    outer loop
      vertex -2.864743e+000 -4.671595e+000  7.050000e+000
      vertex -1.696689e+000 -5.210820e+000  7.500000e+000
      vertex -1.696689e+000 -5.210820e+000  7.050000e+000
    endloop
  endfacet
  facet normal  1.957794e-001  9.806480e-001  -0.000000e+000
    outer loop
      vertex -1.696689e+000 -5.210820e+000  7.050000e+000
      vertex -1.696689e+000 -5.210820e+000  7.500000e+000
      vertex -4.350000e-001 -5.462708e+000  7.500000e+000
    endloop
  endfacet
  facet normal  1.957794e-001  9.806480e-001  0.000000e+000
    outer loop
      vertex -1.696689e+000 -5.210820e+000  7.050000e+000
      vertex -4.350000e-001 -5.462708e+000  7.500000e+000
      vertex -4.350000e-001 -5.462708e+000  7.050000e+000
    endloop
  endfacet
endsolid CATIA STL
